<svg width="19" height="19" viewBox="0 0 19 19" fill="none" xmlns="http://www.w3.org/2000/svg">
<path d="M9.53809 18.6191C14.4424 18.6191 18.5029 14.5498 18.5029 9.6543C18.5029 4.75 14.4336 0.689453 9.5293 0.689453C4.63379 0.689453 0.573242 4.75 0.573242 9.6543C0.573242 14.5498 4.64258 18.6191 9.53809 18.6191ZM14.6885 7.67676H4.37012V7.27246C4.37012 6.3584 4.83594 5.91895 5.74121 5.91895H13.3174C14.2227 5.91895 14.6885 6.36719 14.6885 7.27246V7.67676ZM4.37012 8.67871H14.6885V12.0449C14.6885 12.959 14.2227 13.4072 13.3174 13.4072H5.74121C4.83594 13.4072 4.37012 12.959 4.37012 12.0449V8.67871ZM6.16309 12.0449H7.24414C7.49902 12.0449 7.6748 11.8779 7.6748 11.6318V10.8145C7.6748 10.5684 7.49902 10.4014 7.24414 10.4014H6.16309C5.91699 10.4014 5.74121 10.5684 5.74121 10.8145V11.6318C5.74121 11.8779 5.91699 12.0449 6.16309 12.0449Z" fill="white"/>
</svg>
