<svg width="19" height="19" viewBox="0 0 19 19" fill="none" xmlns="http://www.w3.org/2000/svg">
<path d="M9.53809 18.6191C14.4424 18.6191 18.5029 14.5498 18.5029 9.6543C18.5029 4.75 14.4336 0.689453 9.5293 0.689453C4.63379 0.689453 0.573242 4.75 0.573242 9.6543C0.573242 14.5498 4.64258 18.6191 9.53809 18.6191ZM7.08594 7.95801C7.05078 7.61523 6.90137 7.30762 6.66406 7.08789C7.4375 5.12793 8.66797 3.35254 10.2764 1.91992C10.3994 1.92871 10.5225 1.94629 10.6455 1.96387C9.49414 3.90625 8.7998 6.08594 8.63281 8.34473C8.10547 8.25684 7.58691 8.125 7.08594 7.95801ZM3.03418 5.43555C4.29102 3.51953 6.37402 2.16602 8.74707 1.91992C7.41113 3.31738 6.37402 4.94336 5.6709 6.70996C5.4248 6.70996 5.16113 6.79785 4.93262 6.94727C4.24707 6.52539 3.60547 6.01562 3.03418 5.43555ZM11.1816 5.54102C11.1904 6.34082 11.2871 7.13184 11.4717 7.89648C11.3135 8.05469 11.1992 8.25684 11.1377 8.47656C10.918 8.49414 10.6982 8.50293 10.4697 8.50293C10.2061 8.50293 9.94238 8.49414 9.6875 8.47656C9.83691 6.32324 10.4961 4.2666 11.5947 2.44727C11.3047 3.44043 11.1729 4.47754 11.1816 5.54102ZM12.2451 5.53223C12.2363 4.52148 12.377 3.51074 12.6758 2.56152C14.3984 3.33496 15.8047 4.73242 16.5957 6.44629C15.6729 7.14941 14.6357 7.67676 13.5283 8.02832C13.291 7.70312 12.9043 7.49219 12.4648 7.4834C12.333 6.85059 12.2539 6.2002 12.2451 5.53223ZM1.76855 9.6543C1.76855 8.50293 2.02344 7.41309 2.48926 6.41992C3.06055 6.96484 3.68457 7.44824 4.36133 7.85254C4.34375 7.92285 4.34375 8.00195 4.34375 8.08105C4.34375 8.54688 4.57227 8.95996 4.93262 9.21484C4.74805 10.1289 4.65137 11.0781 4.65137 12.0361C3.64062 11.5439 2.67383 10.9199 1.78613 10.1729C1.77734 9.99707 1.76855 9.83008 1.76855 9.6543ZM17.3076 9.6543C17.3076 10.4102 17.1934 11.1484 16.9824 11.8428C16.4727 12.1152 15.9453 12.3525 15.4004 12.5547C14.5566 11.79 13.8535 10.876 13.3262 9.86523C13.5635 9.66309 13.7217 9.38184 13.7832 9.06543C14.9258 8.71387 16.0068 8.18652 16.9912 7.4834C17.1934 8.17773 17.3076 8.90723 17.3076 9.6543ZM8.58887 9.46973C8.58887 10.6123 8.7207 11.7373 8.97559 12.8359C8.82617 12.9502 8.70312 13.0996 8.61523 13.2666C7.63086 13.1172 6.65527 12.8623 5.71484 12.502C5.68848 11.4561 5.76758 10.4277 5.96973 9.43457C6.28613 9.37305 6.55859 9.20605 6.76074 8.96875C7.34961 9.1709 7.96484 9.32031 8.58887 9.41699C8.58887 9.43457 8.58887 9.45215 8.58887 9.46973ZM10.4697 9.56641C10.751 9.56641 11.0234 9.55762 11.2871 9.53125C11.498 9.88281 11.8672 10.1289 12.2979 10.1816C12.7988 11.1924 13.4668 12.124 14.2666 12.9238C13.2295 13.2139 12.1748 13.3721 11.1113 13.4072C10.9268 12.9414 10.5049 12.6074 9.99512 12.5459C9.77539 11.5703 9.65234 10.5596 9.65234 9.54004C9.9248 9.55762 10.1973 9.56641 10.4697 9.56641ZM2.05859 11.7373C2.88477 12.3262 3.76367 12.8271 4.68652 13.2227C4.72168 14.1631 4.8623 15.0947 5.1084 16.0088C3.64941 14.9805 2.55078 13.4775 2.05859 11.7373ZM9.53809 17.4238C8.45703 17.4238 7.41113 17.1953 6.4707 16.7734C6.10156 15.7715 5.86426 14.7256 5.77637 13.6533C6.67285 13.9609 7.58691 14.1895 8.52734 14.3213C8.69434 14.8574 9.18652 15.2441 9.77539 15.2705C10.0742 15.9736 10.4346 16.6592 10.8477 17.3096C10.417 17.3799 9.98633 17.4238 9.53809 17.4238ZM10.7773 14.9014C10.9004 14.7783 11.0059 14.6289 11.0762 14.4707C12.4648 14.4268 13.8535 14.1982 15.1895 13.7588C15.3828 13.917 15.5938 14.0664 15.7959 14.2158C14.8379 15.5166 13.4932 16.5186 11.9287 17.0371C11.4805 16.3604 11.0938 15.6396 10.7773 14.9014Z" fill="white"/>
</svg>
