<svg width="19" height="14" viewBox="0 0 19 14" fill="none" xmlns="http://www.w3.org/2000/svg">
<path d="M1.70312 6.34375C1.85156 6.5 2.07812 6.49219 2.22656 6.33594C4.14844 4.29688 6.67969 3.21875 9.51562 3.21875C12.3672 3.21875 14.9141 4.30469 16.8203 6.34375C16.9609 6.48438 17.1797 6.48438 17.3281 6.32812L18.4062 5.25C18.5391 5.10938 18.5391 4.9375 18.4297 4.80469C16.5938 2.53906 13.1406 0.875 9.51562 0.875C5.89844 0.875 2.42969 2.53906 0.601562 4.80469C0.492188 4.9375 0.492188 5.10938 0.625 5.25L1.70312 6.34375ZM4.95312 9.60938C5.11719 9.77344 5.32812 9.75 5.48438 9.57812C6.42188 8.53906 7.95312 7.78125 9.51562 7.78906C11.1016 7.78125 12.625 8.5625 13.5781 9.60156C13.7266 9.76562 13.9297 9.76562 14.0859 9.60156L15.2969 8.39844C15.4297 8.27344 15.4375 8.10156 15.3203 7.96094C14.1406 6.51562 11.9531 5.42969 9.51562 5.42969C7.07812 5.42969 4.89844 6.51562 3.71094 7.96094C3.60156 8.10156 3.60938 8.25781 3.74219 8.39844L4.95312 9.60938ZM9.51562 13.8594C9.6875 13.8594 9.83594 13.7812 10.1406 13.4844L12.0469 11.6562C12.1719 11.5391 12.1953 11.3672 12.0938 11.2266C11.5781 10.5703 10.6172 10 9.51562 10C8.39062 10 7.42188 10.5938 6.92188 11.2734C6.83594 11.3984 6.875 11.5391 6.99219 11.6562L8.89062 13.4844C9.19531 13.7734 9.34375 13.8594 9.51562 13.8594Z" fill="white"/>
</svg>
