<svg width="11" height="14" viewBox="0 0 11 14" fill="none" xmlns="http://www.w3.org/2000/svg">
<path d="M2.32031 13.6064H8.58203C9.60742 13.6064 10.1133 13.0938 10.1133 11.9795V7.26953C10.1133 6.29883 9.72363 5.78613 8.93066 5.67676V4.02246C8.93066 1.44531 7.24219 0.201172 5.45117 0.201172C3.66016 0.201172 1.97168 1.44531 1.97168 4.02246V5.67676C1.17871 5.78613 0.789062 6.29883 0.789062 7.26953V11.9795C0.789062 13.0938 1.29492 13.6064 2.32031 13.6064ZM3.07227 3.87891C3.07227 2.16309 4.17285 1.25391 5.45117 1.25391C6.72949 1.25391 7.83008 2.16309 7.83008 3.87891V5.65625H3.07227V3.87891ZM2.36133 12.5811C2.04688 12.5811 1.88965 12.4375 1.88965 12.0547V7.20117C1.88965 6.81836 2.04688 6.68164 2.36133 6.68164H8.54785C8.8623 6.68164 9.0127 6.81836 9.0127 7.20117V12.0547C9.0127 12.4375 8.8623 12.5811 8.54785 12.5811H2.36133Z" fill="#747D85"/>
</svg>
