<svg width="13" height="14" viewBox="0 0 13 14" fill="none" xmlns="http://www.w3.org/2000/svg">
<path d="M1.25586 9.91504H3.34082L2.71875 13.0049C2.70508 13.0732 2.69141 13.1553 2.69141 13.2236C2.69141 13.5586 2.92383 13.7432 3.25195 13.7432C3.58008 13.7432 3.81934 13.5654 3.8877 13.2305L4.55762 9.91504H7.79102L7.16211 13.0049C7.14844 13.0732 7.1416 13.1553 7.1416 13.2236C7.1416 13.5586 7.37402 13.7432 7.69531 13.7432C8.03027 13.7432 8.2627 13.5654 8.33105 13.2305L9.00098 9.91504H11.4414C11.8105 9.91504 12.0771 9.6416 12.0771 9.27246C12.0771 8.97168 11.8652 8.72559 11.5645 8.72559H9.24023L9.97168 5.11621H12.3643C12.7402 5.11621 13 4.84277 13 4.47363C13 4.17285 12.7949 3.92676 12.4873 3.92676H10.2109L10.7715 1.17188C10.7783 1.13086 10.792 1.04199 10.792 0.953125C10.792 0.618164 10.5459 0.426758 10.2246 0.426758C9.83496 0.426758 9.66406 0.638672 9.60254 0.959961L9.00098 3.92676H5.76758L6.32129 1.17188C6.33496 1.13086 6.34863 1.04199 6.34863 0.953125C6.34863 0.618164 6.10254 0.426758 5.77441 0.426758C5.3916 0.426758 5.21387 0.638672 5.15234 0.959961L4.55078 3.92676H2.30176C1.93262 3.92676 1.66602 4.21387 1.66602 4.58984C1.66602 4.89746 1.87793 5.11621 2.17871 5.11621H4.31152L3.58008 8.72559H1.37891C1.00293 8.72559 0.743164 9.0127 0.743164 9.38867C0.743164 9.69629 0.948242 9.91504 1.25586 9.91504ZM4.79688 8.72559L5.52832 5.11621H8.76172L8.03027 8.72559H4.79688Z" fill="#747D85"/>
</svg>
