<svg width="16" height="14" viewBox="0 0 16 14" fill="none" xmlns="http://www.w3.org/2000/svg">
<path d="M5.91113 3.46191C5.99316 3.46191 6.03418 3.41406 6.04785 3.33887C6.28027 2.24512 6.2666 2.2041 7.41504 1.97168C7.49023 1.95801 7.54492 1.91016 7.54492 1.83496C7.54492 1.75293 7.49023 1.70508 7.41504 1.69141C6.2666 1.45898 6.28027 1.41797 6.04785 0.331055C6.03418 0.255859 5.99316 0.201172 5.91113 0.201172C5.8291 0.201172 5.78809 0.255859 5.77441 0.331055C5.54199 1.41797 5.55566 1.45898 4.40723 1.69141C4.33203 1.70508 4.27734 1.75293 4.27734 1.83496C4.27734 1.91016 4.33203 1.95801 4.40723 1.97168C5.55566 2.2041 5.54199 2.24512 5.77441 3.33887C5.78809 3.41406 5.8291 3.46191 5.91113 3.46191ZM11.5576 5.875C11.6533 5.875 11.708 5.81348 11.7285 5.72461C11.9609 4.42578 11.9678 4.34375 13.3418 4.10449C13.4375 4.09082 13.499 4.0293 13.499 3.93359C13.499 3.83789 13.4375 3.7832 13.3418 3.7627C11.9678 3.53027 11.9609 3.44824 11.7285 2.14941C11.708 2.06055 11.6533 1.99219 11.5576 1.99219C11.4619 1.99219 11.4072 2.06055 11.3867 2.14941C11.1543 3.44824 11.1475 3.53027 9.77344 3.7627C9.68457 3.7832 9.61621 3.83789 9.61621 3.93359C9.61621 4.0293 9.68457 4.09082 9.77344 4.10449C11.1475 4.34375 11.1543 4.42578 11.3867 5.72461C11.4072 5.81348 11.4619 5.875 11.5576 5.875ZM2.16504 7.83691C2.26074 7.83691 2.31543 7.76855 2.33594 7.67969C2.56836 6.38086 2.5752 6.29883 3.94922 6.06641C4.03809 6.0459 4.10645 5.99121 4.10645 5.89551C4.10645 5.7998 4.03809 5.73828 3.94922 5.72461C2.5752 5.48535 2.56836 5.40332 2.33594 4.10449C2.31543 4.01562 2.26074 3.9541 2.16504 3.9541C2.06934 3.9541 2.01465 4.01562 1.99414 4.10449C1.76172 5.40332 1.75488 5.48535 0.380859 5.72461C0.291992 5.73828 0.223633 5.7998 0.223633 5.89551C0.223633 5.99121 0.291992 6.0459 0.380859 6.06641C1.75488 6.29883 1.76172 6.38086 1.99414 7.67969C2.01465 7.76855 2.06934 7.83691 2.16504 7.83691ZM13.8408 13.6816C14.1279 13.9756 14.6201 13.9756 14.8936 13.6816C15.1738 13.3809 15.1738 12.916 14.8936 12.6289L8.39258 6.10742C8.10547 5.82031 7.61328 5.82031 7.33984 6.10742C7.05273 6.4082 7.05957 6.87988 7.33984 7.16699L13.8408 13.6816ZM9.8623 8.98535L7.85938 6.97559C7.73633 6.85254 7.69531 6.71582 7.81836 6.59961C7.9209 6.49023 8.06445 6.51758 8.19434 6.64746L10.2041 8.65723L9.8623 8.98535ZM5.41211 13.791C5.53516 13.791 5.62402 13.7021 5.64453 13.5723C5.86328 11.7471 5.95215 11.6992 7.81152 11.3984C7.95508 11.3711 8.04395 11.3027 8.04395 11.166C8.04395 11.0361 7.95508 10.9541 7.83887 10.9336C5.96582 10.5781 5.86328 10.585 5.64453 8.75977C5.62402 8.62988 5.53516 8.54102 5.41211 8.54102C5.28223 8.54102 5.19336 8.62988 5.17969 8.75293C4.94043 10.6055 4.87891 10.667 2.98535 10.9336C2.86914 10.9473 2.78027 11.0361 2.78027 11.166C2.78027 11.2959 2.86914 11.3711 2.98535 11.3984C4.87891 11.7607 4.93359 11.7607 5.17969 13.5859C5.19336 13.7021 5.28223 13.791 5.41211 13.791Z" fill="#747D85"/>
</svg>
