<svg width="17" height="18" viewBox="0 0 17 18" fill="none" xmlns="http://www.w3.org/2000/svg">
<path d="M3.35449 14.9502L4.33203 13.9727C5.34375 14.8477 6.63574 15.415 8.04395 15.5244V16.8916C8.04395 17.165 8.2627 17.3838 8.53613 17.3838C8.80957 17.3838 9.02148 17.165 9.02148 16.8916V15.5244C10.4365 15.415 11.7285 14.8477 12.7402 13.9727L13.7178 14.9502C13.916 15.1416 14.2236 15.1484 14.415 14.9502C14.6133 14.7588 14.6064 14.4512 14.415 14.2529L13.4307 13.2754C14.3057 12.2568 14.8662 10.9717 14.9688 9.56348H16.3564C16.6299 9.56348 16.8486 9.34473 16.8486 9.07129C16.8486 8.79785 16.6299 8.58594 16.3564 8.58594H14.9688C14.8662 7.1709 14.3057 5.88574 13.4307 4.86719L14.415 3.88965C14.6064 3.69141 14.6133 3.38379 14.415 3.19238C14.2236 3.00098 13.916 3.00098 13.7178 3.19238L12.7402 4.16992C11.7285 3.29492 10.4365 2.72754 9.02148 2.625V1.25098C9.02148 0.977539 8.80957 0.758789 8.53613 0.758789C8.2627 0.758789 8.04395 0.977539 8.04395 1.25098V2.625C6.63574 2.72754 5.34375 3.29492 4.33203 4.16992L3.35449 3.19238C3.15625 3.00098 2.84863 3.00098 2.65723 3.19238C2.45898 3.38379 2.46582 3.69141 2.65723 3.88965L3.6416 4.86719C2.7666 5.88574 2.20605 7.1709 2.10352 8.58594H0.71582C0.442383 8.58594 0.223633 8.79785 0.223633 9.07129C0.223633 9.34473 0.442383 9.56348 0.71582 9.56348H2.10352C2.20605 10.9717 2.7666 12.2568 3.6416 13.2754L2.65723 14.2529C2.46582 14.4512 2.45898 14.7588 2.65723 14.9502C2.84863 15.1484 3.15625 15.1416 3.35449 14.9502ZM9.02148 3.73926C10.1426 3.8418 11.1543 4.2793 11.9541 4.95605L9.02148 7.88867V3.73926ZM5.11816 4.95605C5.91797 4.2793 6.92969 3.8418 8.04395 3.73926V7.88867L5.11816 4.95605ZM3.25879 8.58594C3.35449 7.47168 3.77148 6.4668 4.42773 5.66016L7.35352 8.58594H3.25879ZM9.71875 8.58594L12.6445 5.66016C13.3008 6.4668 13.7178 7.47168 13.8135 8.58594H9.71875ZM3.25879 9.56348H7.35352L4.42773 12.4824C3.77148 11.6826 3.35449 10.6709 3.25879 9.56348ZM9.71875 9.56348H13.8135C13.7178 10.6709 13.3008 11.6826 12.6445 12.4824L9.71875 9.56348ZM5.11816 13.1865L8.04395 10.2539V14.4033C6.92969 14.3008 5.91797 13.8633 5.11816 13.1865ZM9.02148 10.2539L11.9541 13.1865C11.1543 13.8633 10.1426 14.3008 9.02148 14.4033V10.2539Z" fill="#747D85"/>
</svg>
