<svg width="19" height="12" viewBox="0 0 19 12" fill="none" xmlns="http://www.w3.org/2000/svg">
<path d="M0.743164 11.1709C0.743164 11.499 0.961914 11.7178 1.29004 11.7178H18.25C18.5781 11.7178 18.79 11.499 18.79 11.1709V0.958008C18.79 0.629883 18.5781 0.417969 18.25 0.417969H1.29004C0.961914 0.417969 0.743164 0.629883 0.743164 0.958008V11.1709ZM1.99414 10.0498V2.08594C1.99414 1.8125 2.15137 1.66895 2.4043 1.66895H17.1289C17.3887 1.66895 17.5391 1.8125 17.5391 2.08594V10.0498C17.5391 10.3164 17.3887 10.4668 17.1289 10.4668H2.4043C2.15137 10.4668 1.99414 10.3164 1.99414 10.0498ZM2.70508 9.5918C2.70508 9.70117 2.7666 9.75586 2.86914 9.75586H8.21484C7.49023 9.01758 7.06641 7.71191 7.06641 6.05762C7.06641 4.41016 7.49023 3.11133 8.20117 2.37988H2.86914C2.7666 2.37988 2.70508 2.43457 2.70508 2.54395V9.5918ZM11.3047 9.75586H16.6641C16.7666 9.75586 16.8281 9.70117 16.8281 9.5918V2.54395C16.8281 2.43457 16.7666 2.37988 16.6641 2.37988H11.3115C12.043 3.11133 12.4736 4.41016 12.4736 6.05762C12.4736 7.71191 12.0361 9.01758 11.3047 9.75586ZM7.88672 6.05762C7.88672 8.19043 8.625 9.61914 9.73926 9.61914C10.8877 9.61914 11.6602 8.19043 11.6602 6.05762C11.6602 3.9248 10.8877 2.50293 9.73926 2.50293C8.625 2.50293 7.88672 3.9248 7.88672 6.05762Z" fill="white"/>
</svg>
