<svg width="13" height="13" viewBox="0 0 13 13" fill="none" xmlns="http://www.w3.org/2000/svg">
<path d="M3.42334 11.0742H9.93848C11.0664 11.0742 11.625 10.5156 11.625 9.40918V2.85107C11.625 1.74463 11.0664 1.18604 9.93848 1.18604H3.42334C2.30078 1.18604 1.73682 1.73926 1.73682 2.85107V9.40918C1.73682 10.521 2.30078 11.0742 3.42334 11.0742ZM4.1001 6.12744C4.1001 5.84814 4.29346 5.65479 4.57812 5.65479H6.21631V4.01123C6.21631 3.73193 6.4043 3.5332 6.67822 3.5332C6.95752 3.5332 7.15088 3.73193 7.15088 4.01123V5.65479H8.7998C9.07373 5.65479 9.26709 5.84814 9.26709 6.12744C9.26709 6.40137 9.07373 6.58398 8.7998 6.58398H7.15088V8.23291C7.15088 8.50684 6.95752 8.70557 6.67822 8.70557C6.4043 8.70557 6.21631 8.50684 6.21631 8.23291V6.58398H4.57812C4.29883 6.58398 4.1001 6.40137 4.1001 6.12744Z" fill="#4D7FF7"/>
</svg>
