<svg width="12" height="12" viewBox="0 0 12 12" fill="none" xmlns="http://www.w3.org/2000/svg">
<circle cx="6" cy="6" r="6" fill="#FA0101"/>
<path d="M5.37393 4.41778V2.7998H6.62695V4.41778L6.3667 7.00655H5.63417L5.37393 4.41778ZM5.20044 8.4807C5.20044 8.27696 5.27434 8.10617 5.42213 7.96834C5.57634 7.83052 5.76911 7.7616 6.00044 7.7616C6.23176 7.7616 6.42132 7.83052 6.56911 7.96834C6.72333 8.10617 6.80044 8.27696 6.80044 8.4807C6.80044 8.68445 6.72333 8.85524 6.56911 8.99306C6.42132 9.13089 6.23176 9.1998 6.00044 9.1998C5.76911 9.1998 5.57634 9.13089 5.42213 8.99306C5.27434 8.85524 5.20044 8.68445 5.20044 8.4807Z" fill="#F9F9F9"/>
</svg>
