<svg width="10" height="12" viewBox="0 0 10 12" fill="none" xmlns="http://www.w3.org/2000/svg">
<path d="M5.13916 8.25439C5.24658 8.25439 5.34326 8.22217 5.45068 8.11475L7.26611 6.3584C7.34668 6.27783 7.38965 6.19189 7.38965 6.0791C7.38965 5.85889 7.22314 5.70312 6.99756 5.70312C6.89551 5.70312 6.78271 5.74609 6.70752 5.83203L5.89648 6.69678L5.53125 7.07812L5.56348 6.27246V0.611328C5.56348 0.385742 5.37012 0.192383 5.13916 0.192383C4.9082 0.192383 4.70947 0.385742 4.70947 0.611328V6.27246L4.74707 7.07812L4.38184 6.69678L3.56543 5.83203C3.49023 5.74609 3.37744 5.70312 3.27002 5.70312C3.0498 5.70312 2.8833 5.85889 2.8833 6.0791C2.8833 6.19189 2.93164 6.27783 3.01221 6.3584L4.82764 8.11475C4.93506 8.22217 5.03174 8.25439 5.13916 8.25439ZM2.05615 11.7886H8.2168C9.33936 11.7886 9.90332 11.23 9.90332 10.1235V4.76318C9.90332 3.65674 9.33936 3.09814 8.2168 3.09814H6.71826V3.96289H8.20068C8.73242 3.96289 9.03857 4.25293 9.03857 4.81152V10.0752C9.03857 10.6338 8.73242 10.9238 8.20068 10.9238H2.06689C1.52979 10.9238 1.23438 10.6338 1.23438 10.0752V4.81152C1.23438 4.25293 1.52979 3.96289 2.06689 3.96289H3.55469V3.09814H2.05615C0.933594 3.09814 0.369629 3.65674 0.369629 4.76318V10.1235C0.369629 11.23 0.933594 11.7886 2.05615 11.7886Z" fill="#4D7FF7"/>
</svg>
