<svg width="15" height="12" viewBox="0 0 15 12" fill="none" xmlns="http://www.w3.org/2000/svg">
<path d="M4.46484 11.084H10.5293C11.625 11.084 12.1172 10.5391 12.2812 9.45508L13.1777 3.4668H13.5C14.1445 3.4668 14.502 3.05664 14.502 2.41797V1.52148C14.502 0.882812 14.1445 0.472656 13.5 0.472656H1.49414C0.878906 0.472656 0.492188 0.882812 0.492188 1.52148V2.41797C0.492188 3.05664 0.855469 3.4668 1.49414 3.4668H1.81641L2.71289 9.45508C2.87695 10.5508 3.36914 11.084 4.46484 11.084ZM1.65234 2.78125C1.35352 2.78125 1.21875 2.62891 1.21875 2.33008V1.60938C1.21875 1.31055 1.35352 1.16406 1.65234 1.16406H13.3477C13.6465 1.16406 13.7812 1.31055 13.7812 1.60938V2.33008C13.7812 2.62891 13.6465 2.78125 13.3477 2.78125H1.65234ZM4.48242 10.3984C3.86133 10.3984 3.5332 10.0996 3.43359 9.44336L2.53711 3.4668H12.4629L11.5605 9.44336C11.4668 10.0996 11.1211 10.3984 10.5117 10.3984H4.48242ZM5.74805 8.96875C5.8418 8.96875 5.92383 8.92773 5.98828 8.86328L7.49414 7.35742L9.00586 8.86328C9.07031 8.92188 9.14648 8.96875 9.24609 8.96875C9.43945 8.96875 9.59766 8.80469 9.59766 8.61719C9.59766 8.51172 9.55078 8.44141 9.48633 8.37109L7.98633 6.86523L9.49219 5.35352C9.5625 5.27734 9.59766 5.20703 9.59766 5.11328C9.59766 4.91992 9.44531 4.76758 9.24609 4.76758C9.1582 4.76758 9.08203 4.80273 9.01172 4.87305L7.49414 6.38477L5.98242 4.87891C5.91211 4.80859 5.8418 4.77344 5.74805 4.77344C5.55469 4.77344 5.39648 4.92578 5.39648 5.11328C5.39648 5.21289 5.4375 5.28906 5.50195 5.35352L7.00781 6.86523L5.50195 8.37695C5.4375 8.44141 5.39648 8.51758 5.39648 8.61719C5.39648 8.81055 5.55469 8.96875 5.74805 8.96875Z" fill="#FF5B35"/>
</svg>
