<svg width="15" height="14" viewBox="0 0 15 14" fill="none" xmlns="http://www.w3.org/2000/svg">
<path d="M7.5 8.16671C8.19036 8.16671 8.75 7.64437 8.75 7.00004C8.75 6.35571 8.19036 5.83337 7.5 5.83337C6.80964 5.83337 6.25 6.35571 6.25 7.00004C6.25 7.64437 6.80964 8.16671 7.5 8.16671Z" stroke="#128BFB" stroke-linecap="round" stroke-linejoin="round"/>
<path d="M1.25 7L2.1875 8.16667C2.83242 8.89945 3.64335 9.48971 4.56195 9.89497C5.48054 10.3002 6.48395 10.5104 7.5 10.5104C8.51605 10.5104 9.51946 10.3002 10.4381 9.89497C11.3566 9.48971 12.1676 8.89945 12.8125 8.16667L13.75 7" stroke="#128BFB" stroke-linecap="round" stroke-linejoin="round"/>
<path d="M1.25 7.00005L2.1875 5.83339C2.83242 5.1006 3.64335 4.51034 4.56195 4.10508C5.48054 3.69982 6.48395 3.48962 7.5 3.48962C8.51605 3.48962 9.51946 3.69982 10.4381 4.10508C11.3566 4.51034 12.1676 5.1006 12.8125 5.83339L13.75 7.00005" stroke="#128BFB" stroke-linecap="round" stroke-linejoin="round"/>
</svg>
