<svg width="11" height="10" viewBox="0 0 11 10" fill="none" xmlns="http://www.w3.org/2000/svg">
<path d="M5.71582 9.59082C5.95752 9.59082 6.15088 9.39746 6.15088 9.15576V4.48291C6.64502 4.30566 7.00488 3.82764 7.00488 3.26904C7.00488 2.71045 6.64502 2.23242 6.15088 2.05518V0.55127C6.15088 0.331055 5.95752 0.137695 5.71582 0.137695C5.47412 0.137695 5.28613 0.331055 5.28613 0.55127V2.0498C4.78125 2.23242 4.42139 2.71045 4.42139 3.26904C4.42139 3.82764 4.78125 4.30566 5.28613 4.48291V9.15576C5.28613 9.39746 5.47412 9.59082 5.71582 9.59082ZM8.05225 6.37354C8.05225 6.93213 8.40674 7.41016 8.90625 7.5874V9.17725C8.90625 9.39746 9.09961 9.59082 9.34131 9.59082C9.58301 9.59082 9.771 9.39746 9.771 9.17725V7.5874C10.2705 7.41016 10.6304 6.93213 10.6304 6.37354C10.6304 5.81494 10.2705 5.33154 9.771 5.1543V0.572754C9.771 0.331055 9.58301 0.137695 9.34131 0.137695C9.09961 0.137695 8.90625 0.331055 8.90625 0.572754V5.15967C8.40674 5.33691 8.05225 5.81494 8.05225 6.37354ZM2.0957 9.59082C2.3374 9.59082 2.52539 9.39746 2.52539 9.17725V7.5874C3.0249 7.41016 3.38477 6.93213 3.38477 6.37354C3.38477 5.81494 3.0249 5.33691 2.52539 5.15967V0.572754C2.52539 0.331055 2.3374 0.137695 2.0957 0.137695C1.854 0.137695 1.66064 0.331055 1.66064 0.572754V5.1543C1.16113 5.33691 0.80127 5.81494 0.80127 6.37354C0.80127 6.93213 1.16113 7.41016 1.66064 7.5874V9.17725C1.66064 9.39746 1.854 9.59082 2.0957 9.59082ZM5.0874 3.26904C5.0874 2.91992 5.3667 2.64062 5.71582 2.64062C6.07031 2.64062 6.34424 2.91992 6.34424 3.26904C6.34424 3.62354 6.07031 3.89746 5.71582 3.89746C5.3667 3.89746 5.0874 3.62354 5.0874 3.26904ZM8.71289 6.37354C8.71289 6.01904 8.99219 5.74512 9.34131 5.74512C9.70117 5.74512 9.96973 6.01904 9.96973 6.37354C9.96973 6.72803 9.70117 7.00195 9.34131 7.00195C8.99219 7.00195 8.71289 6.72803 8.71289 6.37354ZM1.46191 6.37354C1.46191 6.01904 1.74121 5.74512 2.0957 5.74512C2.4502 5.74512 2.72412 6.01904 2.72412 6.37354C2.72412 6.72803 2.4502 7.00195 2.0957 7.00195C1.74121 7.00195 1.46191 6.72803 1.46191 6.37354Z" fill="#4D7FF7"/>
</svg>
