<svg width="15" height="12" viewBox="0 0 15 12" fill="none" xmlns="http://www.w3.org/2000/svg">
<path d="M5.20381 5.99662C5.20381 5.70592 5.44307 5.46253 5.7222 5.46253L12.5476 5.46253L13.5445 5.5031L13.0727 5.04338L11.996 4.02254C11.8897 3.92789 11.8365 3.78592 11.8365 3.65746C11.8365 3.37352 12.0359 3.16394 12.3084 3.16394C12.4479 3.16394 12.5543 3.21803 12.654 3.31944L14.8206 5.60451C14.9535 5.73972 15 5.86141 15 5.99662C15 6.13183 14.9535 6.25352 14.8206 6.38873L12.654 8.6738C12.5543 8.77521 12.4479 8.83606 12.3084 8.83606C12.0359 8.83606 11.8365 8.62648 11.8365 8.3493C11.8365 8.21408 11.8897 8.07211 11.996 7.97746L13.0727 6.94986L13.5445 6.49014L12.5476 6.53746L5.7222 6.53746C5.44307 6.53746 5.20381 6.28732 5.20381 5.99662ZM9.27913e-08 9.87718L4.31745e-07 2.12282C4.93508e-07 0.709858 0.691184 -6.25458e-07 2.06026 -5.65614e-07L8.69296 -2.7569e-07C10.062 -2.15846e-07 10.7532 0.709859 10.7532 2.12282L10.7532 4.00901L9.68321 4.00901L9.68321 2.1431C9.68321 1.4738 9.32432 1.08845 8.63314 1.08845L2.12007 1.08845C1.42889 1.08845 1.07 1.4738 1.07 2.1431L1.07 9.86366C1.07 10.5397 1.42889 10.9115 2.12007 10.9115L8.63314 10.9115C9.32432 10.9115 9.68321 10.5397 9.68321 9.86366L9.68321 7.99099L10.7532 7.99099L10.7532 9.87718C10.7532 11.2901 10.062 12 8.69296 12L2.06026 12C0.691183 12 3.10289e-08 11.2901 9.27913e-08 9.87718Z" fill="#4D7FF7"/>
</svg>
