<svg width="49" height="49" viewBox="0 0 49 49" fill="none" xmlns="http://www.w3.org/2000/svg">
<path d="M20.4165 10.2083C20.4165 9.12537 20.8467 8.08675 21.6125 7.32098C22.3783 6.55521 23.4169 6.125 24.4998 6.125C25.5828 6.125 26.6214 6.55521 27.3872 7.32098C28.153 8.08675 28.5832 9.12537 28.5832 10.2083C30.9278 11.317 32.9266 13.0428 34.3653 15.2008C35.8039 17.3588 36.6282 19.8676 36.7498 22.4583V28.5833C36.9035 29.8526 37.353 31.0682 38.0622 32.132C38.7715 33.1958 39.7206 34.0783 40.8332 34.7083H8.1665C9.27909 34.0783 10.2282 33.1958 10.9374 32.132C11.6467 31.0682 12.0962 29.8526 12.2498 28.5833V22.4583C12.3714 19.8676 13.1957 17.3588 14.6344 15.2008C16.0731 13.0428 18.0718 11.317 20.4165 10.2083" stroke="#7F8EA2" stroke-linecap="round" stroke-linejoin="round"/>
<path d="M18.375 34.7085V36.7502C18.375 38.3746 19.0203 39.9325 20.169 41.0812C21.3176 42.2299 22.8755 42.8752 24.5 42.8752C26.1245 42.8752 27.6824 42.2299 28.831 41.0812C29.9797 39.9325 30.625 38.3746 30.625 36.7502V34.7085" stroke="#7F8EA2" stroke-linecap="round" stroke-linejoin="round"/>
</svg>
