<svg width="12" height="12" viewBox="0 0 12 12" fill="none" xmlns="http://www.w3.org/2000/svg">
<path d="M2.33398 11.1719H9.44141C10.6719 11.1719 11.2812 10.5625 11.2812 9.35547V2.20117C11.2812 0.994141 10.6719 0.384766 9.44141 0.384766H2.33398C1.10938 0.384766 0.494141 0.988281 0.494141 2.20117V9.35547C0.494141 10.5684 1.10938 11.1719 2.33398 11.1719ZM2.3457 10.2285C1.75977 10.2285 1.4375 9.91797 1.4375 9.30859V2.24805C1.4375 1.63867 1.75977 1.32812 2.3457 1.32812H9.42969C10.0098 1.32812 10.3379 1.63867 10.3379 2.24805V9.30859C10.3379 9.91797 10.0098 10.2285 9.42969 10.2285H2.3457ZM7.72461 7.22266C7.98242 7.22266 8.1582 7.02344 8.1582 6.75391V3.98828C8.1582 3.64258 7.96484 3.50781 7.66602 3.50781H4.88867C4.61328 3.50781 4.4375 3.67773 4.4375 3.93555C4.4375 4.19336 4.61914 4.36328 4.90039 4.36328H5.9668L6.83398 4.26953L5.91992 5.11914L3.75781 7.28125C3.67578 7.36328 3.62305 7.48047 3.62305 7.59766C3.62305 7.86133 3.79297 8.03125 4.05078 8.03125C4.19141 8.03125 4.30273 7.97852 4.38477 7.89648L6.54102 5.74023L7.38477 4.83789L7.29688 5.75195V6.76562C7.29688 7.04102 7.4668 7.22266 7.72461 7.22266Z" fill="white"/>
</svg>
