<svg width="198" height="150" viewBox="0 0 198 150" fill="none" xmlns="http://www.w3.org/2000/svg">
<path d="M189.455 5.62393C191.302 5.62393 193.073 6.35573 194.378 7.65835C195.684 8.96097 196.418 10.7277 196.418 12.5699V78.4467C196.418 80.2889 195.684 82.0556 194.378 83.3582C193.073 84.6609 191.302 85.3927 189.455 85.3927H103.781C101.935 85.3927 100.164 84.6609 98.8581 83.3582C97.5523 82.0556 96.8188 80.2889 96.8188 78.4467V12.5699C96.8188 10.7277 97.5523 8.96097 98.8581 7.65835C100.164 6.35573 101.935 5.62393 103.781 5.62393H189.455ZM189.455 5.00195H103.781C101.77 5.00401 99.8417 5.802 98.4195 7.22082C96.9973 8.63963 96.1974 10.5634 96.1953 12.5699V78.4467C96.1974 80.4532 96.9973 82.377 98.4195 83.7958C99.8417 85.2146 101.77 86.0126 103.781 86.0146H189.455C191.467 86.0126 193.395 85.2146 194.817 83.7958C196.239 82.377 197.039 80.4532 197.041 78.4467V12.5699C197.039 10.5634 196.239 8.63963 194.817 7.22082C193.395 5.802 191.467 5.00401 189.455 5.00195Z" fill="white"/>
<path d="M189.455 5.62451H103.781C99.9356 5.62451 96.8184 8.73432 96.8184 12.5705V78.4473C96.8184 82.2834 99.9356 85.3932 103.781 85.3932H189.455C193.3 85.3932 196.417 82.2834 196.417 78.4473V12.5705C196.417 8.73432 193.3 5.62451 189.455 5.62451Z" fill="#F5EBDD"/>
<path fill-rule="evenodd" clip-rule="evenodd" d="M196.729 20.8628H96.8184V20.2402H196.729V20.8628Z" fill="white"/>
<path d="M104.144 15.5759C105.608 15.5759 106.794 14.3924 106.794 12.9325C106.794 11.4726 105.608 10.2891 104.144 10.2891C102.681 10.2891 101.495 11.4726 101.495 12.9325C101.495 14.3924 102.681 15.5759 104.144 15.5759Z" fill="white"/>
<path d="M112.175 15.5759C113.638 15.5759 114.824 14.3924 114.824 12.9325C114.824 11.4726 113.638 10.2891 112.175 10.2891C110.711 10.2891 109.525 11.4726 109.525 12.9325C109.525 14.3924 110.711 15.5759 112.175 15.5759Z" fill="white"/>
<path d="M120.203 15.5759C121.667 15.5759 122.853 14.3924 122.853 12.9325C122.853 11.4726 121.667 10.2891 120.203 10.2891C118.74 10.2891 117.554 11.4726 117.554 12.9325C117.554 14.3924 118.74 15.5759 120.203 15.5759Z" fill="white"/>
<path d="M101.702 52.5844C103.549 52.5844 105.32 53.3162 106.626 54.6188C107.931 55.9214 108.665 57.6881 108.665 59.5303V125.407C108.665 127.249 107.931 129.016 106.626 130.319C105.32 131.621 103.549 132.353 101.702 132.353H16.0284C14.1818 132.353 12.4109 131.621 11.1051 130.319C9.79941 129.016 9.06585 127.249 9.06585 125.407V59.5303C9.06585 57.6881 9.79941 55.9214 11.1051 54.6188C12.4109 53.3162 14.1818 52.5844 16.0284 52.5844H101.702ZM101.702 51.9624H16.0284C14.0171 51.9645 12.0888 52.7625 10.6666 54.1813C9.24435 55.6001 8.44445 57.5238 8.44238 59.5303V125.407C8.44445 127.414 9.24435 129.337 10.6666 130.756C12.0888 132.175 14.0171 132.973 16.0284 132.975H101.702C103.714 132.973 105.642 132.175 107.064 130.756C108.486 129.337 109.286 127.414 109.288 125.407V59.5303C109.286 57.5238 108.486 55.6001 107.064 54.1813C105.642 52.7625 103.714 51.9645 101.702 51.9624Z" fill="white"/>
<path d="M101.702 52.583H16.028C12.1827 52.583 9.06543 55.6928 9.06543 59.5289V125.406C9.06543 129.242 12.1827 132.352 16.028 132.352H101.702C105.547 132.352 108.664 129.242 108.664 125.406V59.5289C108.664 55.6928 105.547 52.583 101.702 52.583Z" fill="#F5EBDD"/>
<path fill-rule="evenodd" clip-rule="evenodd" d="M108.976 67.8227H9.06543V67.2002H108.976V67.8227Z" fill="white"/>
<path d="M16.3914 62.5358C17.8548 62.5358 19.0412 61.3523 19.0412 59.8924C19.0412 58.4325 17.8548 57.249 16.3914 57.249C14.928 57.249 13.7417 58.4325 13.7417 59.8924C13.7417 61.3523 14.928 62.5358 16.3914 62.5358Z" fill="white"/>
<path d="M24.4217 62.5358C25.8851 62.5358 27.0715 61.3523 27.0715 59.8924C27.0715 58.4325 25.8851 57.249 24.4217 57.249C22.9583 57.249 21.772 58.4325 21.772 59.8924C21.772 61.3523 22.9583 62.5358 24.4217 62.5358Z" fill="white"/>
<path d="M32.45 62.5358C33.9134 62.5358 35.0998 61.3523 35.0998 59.8924C35.0998 58.4325 33.9134 57.249 32.45 57.249C30.9866 57.249 29.8003 58.4325 29.8003 59.8924C29.8003 61.3523 30.9866 62.5358 32.45 62.5358Z" fill="white"/>
<path d="M82.5459 57.3409C82.5459 57.2772 82.5459 57.1854 82.5459 57.0906L82.6207 57.0346L82.5475 57.0191C82.5475 55.6818 82.4337 51.7105 81.1322 48.6845C79.9757 45.996 78.3796 44.7536 77.2714 45.2279C76.1632 45.7022 75.9652 47.7158 77.1155 50.3996C77.7577 51.8955 78.7693 53.3401 79.7434 54.5311C77.7811 52.6761 75.1017 50.3763 72.6827 49.1106C69.4095 47.4002 66.8642 47.4515 66.1581 48.7918C65.452 50.1322 66.8595 52.2547 70.1296 53.9667C72.2572 55.0816 75.1625 55.9073 77.6315 56.4686C76.3079 56.4232 74.9836 56.5349 73.6865 56.8014C70.8247 57.442 69.3097 58.7808 69.5731 59.9532C69.8365 61.1257 71.7802 61.6901 74.6419 61.0495C77.8294 60.3358 81.087 58.1417 82.2077 57.3347L82.4057 57.3643C82.4867 57.4404 82.535 57.4824 82.535 57.4824C82.535 57.4824 82.535 57.4467 82.535 57.3829H82.5818L82.5459 57.3409Z" fill="#3EC1F3"/>
<path d="M114.016 71.4799L113.967 71.4331V71.5298L114.016 71.4799Z" fill="#3EC1F3"/>
<path d="M110.279 75.2469L110.24 67.7536L106.406 63.9673L106.482 79.072L110.279 75.2469Z" fill="#3EC1F3"/>
<path d="M83.7915 54.6269L83.9193 79.831L87.7536 83.6173L87.5869 50.8018L83.7915 54.6269Z" fill="#3EC1F3"/>
<path d="M71.2236 67.2939L80.1922 76.1509L80.1018 58.3452L71.2236 67.2939Z" fill="#3EC1F3"/>
<path d="M102.795 82.7884L102.681 60.2883L98.8452 56.5005L98.998 86.6151L102.795 82.7884Z" fill="#3EC1F3"/>
<path d="M95.1195 52.821L91.2852 49.0347L91.4784 87.2972L94.934 90.7088L95.3096 90.3309L95.1195 52.821Z" fill="#3EC1F3"/>
<path d="M80.1021 58.3448L80.1925 76.1505L83.9192 79.8311L83.7914 54.627L80.1021 58.3448Z" fill="#4756DF"/>
<path d="M90.3032 48.0654L87.5864 50.8021L87.7532 83.6177L91.4784 87.2983L91.2851 49.0357L90.3032 48.0654Z" fill="#4756DF"/>
<path d="M98.9976 86.6154L98.8449 56.5008L95.1196 52.8218L95.3098 90.3317L98.9976 86.6154Z" fill="#4756DF"/>
<path d="M106.482 79.0723L106.406 63.9676L102.681 60.2886L102.794 82.7886L106.482 79.0723Z" fill="#4756DF"/>
<path d="M113.967 71.5314V71.4349L110.24 67.7544L110.279 75.2477L113.967 71.5314Z" fill="#4756DF"/>
<path fill-rule="evenodd" clip-rule="evenodd" d="M76.9517 72.9593L95.997 53.7666L96.4401 54.2042L77.3947 73.3969L76.9517 72.9593Z" fill="black"/>
<path d="M91.2898 47.0698L70.2349 68.2881L75.954 73.9361L97.0089 52.7177L91.2898 47.0698Z" fill="#4756DF"/>
<path d="M85.596 81.3505C85.596 81.3505 87.6223 74.6643 86.3754 73.5758C84.8697 72.2619 82.3228 76.5302 80.2701 81.6615C78.1113 87.0525 71.8532 102.342 71.5415 103.431C71.5415 103.431 60.8786 97.6153 56.1107 95.5005C51.9023 93.6346 46.7758 92.9566 46.7758 92.9566L46.1243 89.0522C46.1243 89.0522 49.1684 90.1406 51.7776 88.6183C54.3868 87.0961 55.0399 84.2785 54.1701 79.9402C53.6542 77.3699 53.6729 74.1869 53.2349 71.3491C51.4986 71.6414 48.9548 71.0459 48.9548 71.0459C45.4743 74.9504 41.7849 75.818 41.7849 75.818C39.3924 73.215 35.0421 73.215 34.3906 76.9065C33.6689 80.9882 38.7393 82.1125 38.7393 82.1125C38.7393 82.1125 39.7711 88.0368 37.589 93.9456C34.5574 102.156 22.3359 104.334 17.3263 100.787C8.28601 107.163 16.2835 126.533 23.8727 135.618C30.1074 143.082 52.2405 139.195 52.2405 139.195C52.2405 139.195 54.7344 141.06 57.6958 141.682C62.9953 152.101 65.1775 149.146 65.1775 149.146C65.1775 149.146 67.0479 151.168 68.4507 148.991C71.2563 149.146 71.1004 147.436 68.6065 141.527C71.4121 144.948 74.1585 144.959 74.2177 144.015C74.3736 141.527 66.1127 132.819 60.969 130.642C57.1051 129.007 55.202 128.465 55.202 128.465L54.4226 115.87C54.4226 115.87 70.9632 124.933 78.7379 120.691C88.7134 115.248 92.7659 88.5033 92.7659 88.5033L85.596 81.3505Z" fill="#EAA58B"/>
<path d="M37.5893 93.9446C39.7715 88.0358 38.7303 82.1084 38.7303 82.1084C38.7303 82.1084 33.6599 80.9841 34.3816 76.9024C35.0331 73.2141 39.3834 73.2141 41.7759 75.8139C41.7759 75.8139 45.4715 74.9463 48.9458 71.0418C48.9458 71.0418 51.4895 71.6374 53.2259 71.345C52.922 69.3905 52.4014 67.5945 51.3368 66.2681C48.7276 63.0152 41.5515 60.8445 35.8982 64.9666C30.2449 69.0888 30.6782 75.8139 30.8964 78.4169C30.8964 78.4169 21.1189 76.0285 15.9176 83.3679C9.52704 92.3866 17.3204 100.783 17.3204 100.783C22.3362 104.333 34.5577 102.155 37.5893 93.9446Z" fill="#30242A"/>
<path d="M54.6957 120.281L54.4229 115.87H54.4369L53.1323 94.3865C51.693 93.9427 50.2309 93.5757 48.7525 93.2871L48.0323 108.095H35.8747L31.2564 100.608C29.6079 101.419 27.8425 101.969 26.0239 102.236L32.9694 119.409L35.563 125.821C35.563 125.821 41.4859 126.132 46.7854 126.91C52.0849 127.687 55.2022 128.465 55.2022 128.465L54.6957 120.281Z" fill="#FF7235"/>
<path fill-rule="evenodd" clip-rule="evenodd" d="M85.9218 81.4382C86.0861 81.4897 86.1774 81.6643 86.1258 81.8281C86.0158 82.1773 85.9034 82.5189 85.7916 82.8431C85.8106 82.8674 85.8318 82.8949 85.8549 82.9253C85.9632 83.0682 86.1135 83.2773 86.2853 83.5462C86.6285 84.0835 87.0588 84.8622 87.4091 85.8308C88.1106 87.7705 88.4928 90.4776 87.2083 93.5208C87.1415 93.6791 86.9587 93.7534 86.8001 93.6867C86.6414 93.6201 86.5669 93.4377 86.6337 93.2794C87.8432 90.4139 87.4849 87.873 86.8226 86.0419C86.4911 85.1252 86.0835 84.3878 85.7595 83.8804C85.5976 83.6269 85.4569 83.4315 85.3576 83.3004C85.3079 83.2349 85.2686 83.1856 85.2423 83.1531C85.2291 83.1369 85.2191 83.125 85.2127 83.1173C85.2095 83.1135 85.2072 83.1108 85.2058 83.1092L85.2045 83.1076L85.2044 83.1076L85.2043 83.1074L85.2043 83.1074L85.0864 82.9714L85.1461 82.8014C85.2742 82.4365 85.4041 82.0447 85.531 81.6417C85.5826 81.4778 85.7576 81.3867 85.9218 81.4382Z" fill="#BB7259"/>
<path fill-rule="evenodd" clip-rule="evenodd" d="M71.2906 103.003C71.451 103.065 71.5303 103.246 71.4677 103.406L69.8327 107.587C69.7701 107.747 69.5894 107.826 69.429 107.763C69.2686 107.701 69.1893 107.521 69.2519 107.361L70.8869 103.179C70.9495 103.019 71.1302 102.94 71.2906 103.003Z" fill="#BB7259"/>
<path fill-rule="evenodd" clip-rule="evenodd" d="M66.8823 137.471C67.0322 137.386 67.2223 137.439 67.3069 137.589C68.0349 138.876 68.8551 140.633 69.5153 142.126C69.5847 142.283 69.5134 142.466 69.3558 142.536C69.1983 142.605 69.0143 142.534 68.9448 142.377C68.2863 140.887 67.4761 139.154 66.7639 137.895C66.6793 137.745 66.7323 137.555 66.8823 137.471Z" fill="#BB7259"/>
<path fill-rule="evenodd" clip-rule="evenodd" d="M63.9562 139.022C64.1059 138.937 64.2962 138.99 64.3812 139.139C66.2645 142.447 67.7382 146.145 68.6606 148.737C68.7182 148.899 68.6334 149.077 68.4711 149.134C68.3089 149.192 68.1307 149.107 68.0731 148.945C67.1562 146.369 65.6966 142.709 63.8391 139.446C63.754 139.297 63.8065 139.107 63.9562 139.022Z" fill="#BB7259"/>
<path fill-rule="evenodd" clip-rule="evenodd" d="M61.0523 140.861C61.2035 140.779 61.3928 140.834 61.4752 140.985C62.8848 143.566 64.2545 146.57 65.2692 148.926C65.3372 149.084 65.264 149.266 65.1058 149.334C64.9476 149.402 64.7643 149.329 64.6964 149.171C63.6847 146.822 62.3237 143.839 60.9277 141.283C60.8453 141.132 60.9011 140.943 61.0523 140.861Z" fill="#BB7259"/>
<path fill-rule="evenodd" clip-rule="evenodd" d="M33.9268 122.011C33.9281 121.839 34.0687 121.701 34.2408 121.702L54.9711 121.858C55.1433 121.859 55.2818 121.999 55.2805 122.171C55.2792 122.343 55.1386 122.482 54.9665 122.48L34.2361 122.325C34.064 122.323 33.9255 122.183 33.9268 122.011Z" fill="#724342"/>
<path d="M27.9536 131.988C26.942 131.645 25.8585 131.571 24.8094 131.771C23.7602 131.972 22.7812 132.441 21.9683 133.132C22.5995 134.023 23.237 134.858 23.873 135.62C25.5968 137.683 28.5349 138.885 31.8845 139.528C32.734 136.359 31.0428 133.048 27.9536 131.988Z" fill="#CA7358"/>
<path d="M78.7379 120.691C80.0924 119.952 81.3362 118.825 82.4787 117.416C81.7392 116.307 80.6541 115.471 79.391 115.038C76.1568 113.93 72.6139 115.702 71.4776 118.997C71.1815 119.856 71.0716 120.769 71.155 121.673C73.984 122.006 76.6711 121.818 78.7379 120.691Z" fill="#CA7358"/>
<path d="M26.0221 102.236C22.6647 102.735 19.3853 102.246 17.3263 100.787C10.7565 105.421 13.1849 116.915 17.9155 126.34L32.9691 119.409L26.0221 102.236Z" fill="#FFBE21"/>
<path d="M37.5892 93.9454C36.4639 96.9915 34.0729 99.2073 31.2563 100.608L35.8747 108.095H48.0323L48.7524 93.2954C47.5554 93.0606 46.776 92.9564 46.776 92.9564L46.4736 91.1465H38.4028C38.1964 92.097 37.9246 93.0322 37.5892 93.9454Z" fill="#FFBE21"/>
<path d="M56.1089 95.5006C55.1381 95.0766 54.1442 94.7075 53.1318 94.395L54.4364 115.878C56.507 116.972 58.6357 117.952 60.813 118.815L67.2035 101.098C63.6996 99.2325 58.8974 96.7445 56.1089 95.5006Z" fill="#FFBE21"/>
<path d="M15.1405 108.726C19.3153 106.322 21.0025 101.44 18.909 97.8223C16.8154 94.2048 11.7339 93.2216 7.55914 95.6261C3.38434 98.0307 1.69715 102.913 3.79069 106.53C5.88422 110.147 10.9657 111.131 15.1405 108.726Z" fill="#30242A"/>
<path fill-rule="evenodd" clip-rule="evenodd" d="M13.4568 93.4061C13.6266 93.3779 13.7873 93.4923 13.8156 93.6618L13.5081 93.7129C13.8156 93.6618 13.8155 93.6617 13.8155 93.6616C13.8155 93.6616 13.8155 93.6616 13.8155 93.6616L13.8156 93.6621L13.8161 93.6647L13.8182 93.6769C13.8202 93.6881 13.8234 93.7053 13.8278 93.7282C13.8366 93.7739 13.8503 93.8423 13.8698 93.9307C13.9087 94.1076 13.9705 94.3642 14.061 94.6792C14.2423 95.3097 14.538 96.1709 14.9954 97.093C15.9124 98.9417 17.4622 101.003 20.01 101.975C20.1708 102.036 20.2513 102.216 20.1898 102.376C20.1283 102.537 19.9481 102.617 19.7873 102.556C17.0356 101.506 15.39 99.2909 14.4366 97.3689C13.9588 96.4056 13.6506 95.5078 13.4617 94.8506C13.3672 94.5218 13.3023 94.2524 13.2608 94.0642C13.2401 93.9701 13.2252 93.8962 13.2155 93.8453C13.2106 93.8198 13.2069 93.8001 13.2045 93.7864C13.2033 93.7796 13.2023 93.7743 13.2017 93.7705L13.2009 93.7661L13.2007 93.7648L13.2006 93.7643C13.2006 93.7642 13.2006 93.764 13.5081 93.7129L13.2006 93.764C13.1723 93.5946 13.287 93.4344 13.4568 93.4061Z" fill="black"/>
<path fill-rule="evenodd" clip-rule="evenodd" d="M131.302 54.9964C131.473 54.9737 131.63 55.0933 131.653 55.2636L132.276 59.9284C132.299 60.0987 132.179 60.2551 132.008 60.2778C131.838 60.3005 131.681 60.1809 131.658 60.0106L131.035 55.3458C131.012 55.1755 131.132 55.0191 131.302 54.9964Z" fill="#F5EBDC"/>
<path d="M183.169 49.7851C183.169 49.7851 190.183 41.5439 182.39 34.5467C177.626 30.2706 171.905 31.4617 171.905 31.4617C172.121 28.8587 172.556 22.132 166.903 18.0114C161.25 13.8908 154.072 16.0599 151.463 19.3129C148.853 22.5658 149.507 28.6425 148.637 32.9808C147.767 37.3191 148.419 40.1336 151.028 41.659C153.637 43.1844 156.683 42.0928 156.683 42.0928L156.03 45.9973C156.03 45.9973 150.905 46.6753 146.696 48.5412C141.927 50.6559 131.265 56.4714 131.265 56.4714C130.954 55.383 129.239 37.6566 128.46 31.9033C127.866 27.5199 125.81 22.1071 124.251 23.1956C122.739 24.2514 123.316 27.7049 123.316 27.7049L115.367 35.9461C115.367 35.9461 111.438 64.2042 120.822 71.8654C127.68 77.4632 145.605 68.4445 145.605 68.4445L143.267 85.3934H164.655C164.655 85.3934 160.645 86.457 152.307 90.2137C142.644 94.5676 137.032 106.696 137.656 107.629C138.279 108.562 140.15 107.785 142.644 104.675C140.462 112.76 142.644 112.138 144.046 111.983C145.473 114.029 147.32 111.517 147.32 111.517C147.32 111.517 149.814 113.849 153.71 102.964C155.48 102.132 157.11 101.03 158.542 99.6989C158.542 99.6989 183.325 98.144 188.157 89.4363C192.989 80.7286 189.716 58.0264 183.169 49.7851Z" fill="#A15842"/>
<path d="M150.772 31.0172C151.13 31.0172 151.419 30.7283 151.419 30.3719C151.419 30.0155 151.13 29.7266 150.772 29.7266C150.415 29.7266 150.125 30.0155 150.125 30.3719C150.125 30.7283 150.415 31.0172 150.772 31.0172Z" fill="#30242A"/>
<path fill-rule="evenodd" clip-rule="evenodd" d="M31.5887 125.419C31.5962 125.247 31.7417 125.114 31.9137 125.121L35.4986 125.277C35.6706 125.284 35.804 125.43 35.7965 125.602C35.789 125.773 35.6435 125.906 35.4715 125.899L31.8866 125.743C31.7146 125.736 31.5812 125.591 31.5887 125.419Z" fill="#BB7259"/>
<path fill-rule="evenodd" clip-rule="evenodd" d="M43.0632 88.0756C43.1449 87.9244 43.334 87.8679 43.4855 87.9494C44.3472 88.4126 45.2455 88.8046 46.1712 89.1217C46.3341 89.1774 46.4208 89.3543 46.3649 89.5168C46.309 89.6792 46.1316 89.7657 45.9688 89.7099C45.0109 89.3819 44.0814 88.9762 43.1898 88.4969C43.0382 88.4155 42.9816 88.2268 43.0632 88.0756Z" fill="#BB7259"/>
<path fill-rule="evenodd" clip-rule="evenodd" d="M30.6285 78.066C30.7998 78.049 30.9525 78.1737 30.9696 78.3446C31.0879 79.5297 31.2481 81.003 31.4033 82.1642C31.426 82.3344 31.3061 82.4909 31.1355 82.5136C30.9648 82.5363 30.808 82.4166 30.7853 82.2464C30.6287 81.0752 30.4678 79.5941 30.3492 78.4063C30.3322 78.2354 30.4572 78.083 30.6285 78.066Z" fill="black"/>
<path fill-rule="evenodd" clip-rule="evenodd" d="M43.4803 116.52C43.5793 116.48 43.6464 116.488 43.7037 116.513L43.4803 116.52ZM43.7037 116.513C43.7718 116.542 43.858 116.612 43.9543 116.751L43.7037 116.513ZM43.9543 116.751C44.1496 117.034 44.3205 117.505 44.4637 118.106L43.9543 116.751ZM44.4637 118.106C44.6558 118.912 44.7837 119.884 44.8763 120.793L44.4637 118.106ZM44.8763 120.793C44.5952 120.343 44.2688 119.791 43.9805 119.226C43.637 118.553 43.3603 117.886 43.266 117.361C43.2187 117.097 43.2229 116.898 43.2644 116.762C43.3012 116.64 43.3663 116.566 43.4803 116.52M45.0703 117.962C45.3667 119.205 45.513 120.806 45.6094 121.975C45.6209 122.114 45.5373 122.244 45.4052 122.292C45.2731 122.34 45.1252 122.294 45.0441 122.18L45.2987 122C45.0441 122.18 45.0441 122.179 45.044 122.179L45.0411 122.175L45.033 122.164C45.026 122.154 45.0156 122.139 45.0023 122.12C44.9757 122.081 44.9371 122.025 44.8887 121.954C44.7919 121.811 44.6558 121.607 44.4978 121.36C44.1825 120.867 43.7777 120.2 43.4248 119.508C43.075 118.823 42.7634 118.089 42.6523 117.47C42.5968 117.161 42.5856 116.852 42.6676 116.581C42.7543 116.296 42.9433 116.064 43.2485 115.943C43.4882 115.847 43.7294 115.845 43.9533 115.943C44.1663 116.035 44.3341 116.205 44.4675 116.398C44.7316 116.78 44.9234 117.346 45.0703 117.962Z" fill="#724342"/>
<path fill-rule="evenodd" clip-rule="evenodd" d="M45.4123 122.091L45.1263 121.967C45.07 122.097 45.1084 122.248 45.2197 122.335C45.331 122.422 45.4873 122.424 45.6003 122.339C46.3061 121.807 47.271 121.067 47.9467 120.39C48.2797 120.057 48.5712 119.71 48.7138 119.392C48.7857 119.232 48.835 119.046 48.8011 118.857C48.7645 118.652 48.6394 118.493 48.4604 118.388C48.2329 118.254 47.9891 118.248 47.7636 118.319C47.5488 118.387 47.3495 118.525 47.1714 118.686C46.8148 119.007 46.4699 119.487 46.1742 119.964C45.8754 120.446 45.6137 120.947 45.4274 121.325C45.334 121.514 45.2591 121.674 45.2074 121.787C45.1815 121.843 45.1614 121.888 45.1477 121.919C45.1408 121.934 45.1356 121.946 45.132 121.954L45.1279 121.963L45.1263 121.967C45.1263 121.967 45.1263 121.967 45.4123 122.091ZM46.7044 120.291C46.5527 120.536 46.4103 120.787 46.2829 121.024C46.7214 120.672 47.1562 120.301 47.5049 119.952C47.8296 119.626 48.0512 119.347 48.1447 119.138C48.1908 119.035 48.1904 118.983 48.1874 118.966C48.1874 118.966 48.1874 118.966 48.1874 118.966C48.1873 118.963 48.1871 118.949 48.1439 118.924C48.0928 118.894 48.0372 118.885 47.9523 118.912C47.8567 118.942 47.7346 119.016 47.5894 119.147C47.2997 119.408 46.9919 119.828 46.7044 120.291Z" fill="#724342"/>
<path fill-rule="evenodd" clip-rule="evenodd" d="M47.0803 92.7592C47.2501 92.7309 47.4107 92.8453 47.4391 93.0147L47.7165 94.6723C47.7449 94.8417 47.6302 95.0019 47.4604 95.0302C47.2906 95.0585 47.1299 94.9441 47.1016 94.7747L46.8241 93.1171C46.7958 92.9477 46.9104 92.7875 47.0803 92.7592Z" fill="#BB7259"/>
<path fill-rule="evenodd" clip-rule="evenodd" d="M37.1594 77.3934C37.2431 77.2432 37.4329 77.1892 37.5834 77.2726L39.5239 78.3486C39.6744 78.4321 39.7286 78.6214 39.6449 78.7715C39.5613 78.9217 39.3715 78.9757 39.221 78.8923L37.2805 77.8163C37.13 77.7328 37.0758 77.5435 37.1594 77.3934Z" fill="#BB7259"/>
<path fill-rule="evenodd" clip-rule="evenodd" d="M48.4411 82.0166C48.5199 81.9539 48.6242 81.9331 48.7212 81.9607L51.4473 82.7382C51.5302 82.7618 51.5996 82.8187 51.6389 82.8952C51.6783 82.9717 51.6841 83.0611 51.655 83.1421C51.3459 84.0028 50.5419 84.4038 49.787 84.2557C49.0186 84.1049 48.3858 83.4116 48.3242 82.2765C48.3187 82.1761 48.3623 82.0793 48.4411 82.0166ZM49.0134 82.691C49.1677 83.2875 49.549 83.5751 49.9073 83.6454C50.2694 83.7164 50.6647 83.5827 50.9131 83.2327L49.0134 82.691Z" fill="#BB7259"/>
<path d="M47.3807 78.6749C47.738 78.6749 48.0276 78.386 48.0276 78.0296C48.0276 77.6732 47.738 77.3843 47.3807 77.3843C47.0235 77.3843 46.7339 77.6732 46.7339 78.0296C46.7339 78.386 47.0235 78.6749 47.3807 78.6749Z" fill="#724342"/>
<path d="M52.1908 77.5108C52.548 77.5108 52.8376 77.2219 52.8376 76.8655C52.8376 76.5091 52.548 76.2202 52.1908 76.2202C51.8335 76.2202 51.5439 76.5091 51.5439 76.8655C51.5439 77.2219 51.8335 77.5108 52.1908 77.5108Z" fill="#724342"/>
<path fill-rule="evenodd" clip-rule="evenodd" d="M50.4254 78.5269C50.5865 78.4663 50.7664 78.5474 50.8271 78.7081C50.9063 78.9174 50.9861 79.1445 51.0403 79.3449C51.0673 79.4448 51.0898 79.5447 51.1019 79.6362C51.1129 79.7195 51.1204 79.8303 51.0917 79.9345L51.0898 79.9413L51.0876 79.9479C50.9996 80.2185 50.822 80.4512 50.5839 80.6077C50.4401 80.7022 50.2468 80.6625 50.152 80.5191C50.0573 80.3757 50.0971 80.1828 50.2408 80.0883C50.3553 80.0131 50.442 79.9029 50.4882 79.7746C50.4882 79.7673 50.488 79.7493 50.4838 79.7174C50.4766 79.6636 50.4616 79.5928 50.4383 79.5069C50.392 79.3356 50.3205 79.1305 50.2438 78.9277C50.183 78.767 50.2644 78.5876 50.4254 78.5269Z" fill="#BB7259"/>
<path d="M44.8167 61.5586L45.6412 62.462L46.1867 63.0622C46.5343 64.2751 44.0046 66.2079 40.4882 67.4052C36.9719 68.6025 33.786 68.6134 33.3184 67.441L33.3838 66.6324L33.4836 65.4149C34.8038 65.7259 37.095 65.4755 39.5468 64.6374C41.9986 63.7993 43.9656 62.616 44.8167 61.5586Z" fill="#FFB7D5"/>
<path d="M38.5961 61.8729C40.4353 61.251 42.0034 60.4206 43.0321 59.5996L44.8168 61.5588C43.9657 62.6162 41.9956 63.8073 39.5422 64.6423C37.0889 65.4773 34.7992 65.7308 33.479 65.4198L33.6925 62.7764C35.0096 62.7997 36.7569 62.498 38.5961 61.8729Z" fill="#FF7235"/>
<path d="M41.1215 57.5034L43.0324 59.5995C42.0037 60.4205 40.4357 61.2477 38.5964 61.8728C36.7572 62.4979 35.0115 62.8058 33.6929 62.7778L33.9204 59.9525C36.4656 59.6457 38.9185 58.8115 41.1215 57.5034Z" fill="#FFB7D5"/>
<path d="M36.7026 56.3342C37.5346 56.0535 38.3456 55.7141 39.1295 55.3188L41.1215 57.5035C38.9184 58.8117 36.4656 59.6458 33.9204 59.9526L34.1604 57.0106C35.0226 56.8447 35.8721 56.6187 36.7026 56.3342Z" fill="#FF7235"/>
<path d="M34.1602 57.0106L34.6917 50.4487L39.1308 55.3188C38.3469 55.7141 37.5359 56.0534 36.7039 56.3342C35.8729 56.6187 35.0229 56.8448 34.1602 57.0106Z" fill="#FFB7D5"/>
<path d="M34.3159 51.7477C35.6416 51.7477 36.7162 50.6756 36.7162 49.3531C36.7162 48.0306 35.6416 46.9585 34.3159 46.9585C32.9902 46.9585 31.9155 48.0306 31.9155 49.3531C31.9155 50.6756 32.9902 51.7477 34.3159 51.7477Z" fill="#FF7235"/>
<path d="M38.1349 84.7702C39.2109 84.7702 40.0832 83.9 40.0832 82.8265C40.0832 81.753 39.2109 80.8828 38.1349 80.8828C37.0588 80.8828 36.1865 81.753 36.1865 82.8265C36.1865 83.9 37.0588 84.7702 38.1349 84.7702Z" fill="#F4E6D8"/>
<path d="M160.277 92.989L160.677 93.8831L163.078 99.2492C170.466 98.338 184.63 95.7942 188.157 89.436C192.989 80.7283 189.715 58.0261 183.169 49.7849C177.714 55.7698 169.278 54.1387 165.896 49.1629C165.273 49.3174 164.638 49.4214 163.997 49.4739C162.999 49.5659 161.993 49.5262 161.005 49.3557C159.821 49.1586 158.7 48.6873 157.732 47.9796C156.499 47.0544 156.048 46.053 156.048 46.053L155.839 46.0234C154.882 46.1649 150.429 46.8849 146.696 48.5409C141.927 50.6556 131.265 56.4711 131.265 56.4711C131.125 55.9829 130.703 52.1375 130.209 47.5302L124.155 49.8626L123.499 50.1161L120.367 51.3258L114.673 53.5245C115.082 60.8452 116.614 68.4287 120.822 71.8651C127.68 77.4629 145.605 68.4442 145.605 68.4442L143.267 85.3931H164.655C164.655 85.3931 162.462 85.9762 157.953 87.7955L158.991 90.1139L160.277 92.989Z" fill="#FFB7D5"/>
<path d="M130.797 65.0234C128.896 65.0234 127.072 65.777 125.727 67.1184C124.383 68.4598 123.627 70.2792 123.627 72.1762C123.627 72.5479 123.656 72.9191 123.713 73.2864C127.8 74.3749 133.417 73.0967 137.941 71.576C137.79 69.7894 136.972 68.1244 135.649 66.9109C134.326 65.6974 132.595 65.0237 130.797 65.0234Z" fill="#FF7235"/>
<path d="M123.784 52.1167C123.783 51.4411 123.687 50.7689 123.499 50.1201L120.367 51.3299L114.673 53.5286C114.778 55.4054 114.957 57.2993 115.236 59.1357C116.275 59.3386 117.345 59.3096 118.371 59.0508C119.397 58.792 120.353 58.3098 121.17 57.6388C121.988 56.9678 122.646 56.1247 123.098 55.1699C123.549 54.2152 123.784 53.1725 123.784 52.1167Z" fill="#FF7235"/>
<path d="M144.514 57.0923C145.709 57.0917 146.884 56.7933 147.934 56.2243C148.984 55.6552 149.874 54.8334 150.524 53.8337C151.175 52.834 151.565 51.688 151.658 50.4999C151.752 49.3117 151.546 48.1191 151.06 47.0303C149.57 47.4232 148.111 47.9279 146.696 48.5401C144.501 49.5135 141.058 51.2706 137.98 52.8846C138.548 54.1387 139.466 55.2027 140.625 55.949C141.784 56.6954 143.134 57.0923 144.514 57.0923Z" fill="#FF7235"/>
<path d="M161.971 73.4193C165.931 73.4193 169.141 70.2169 169.141 66.2665C169.141 62.3162 165.931 59.1138 161.971 59.1138C158.011 59.1138 154.801 62.3162 154.801 66.2665C154.801 70.2169 158.011 73.4193 161.971 73.4193Z" fill="#FF7235"/>
<path d="M147.943 77.6182C146.622 77.618 145.327 77.9835 144.202 78.674L143.267 85.3929H155.083C155.102 85.1876 155.113 84.9808 155.113 84.7709C155.113 82.8739 154.358 81.0546 153.013 79.7132C151.668 78.3718 149.845 77.6182 147.943 77.6182Z" fill="#FF7235"/>
<path d="M173.674 53.5751C173.674 53.7104 173.662 53.8457 173.662 53.9825C173.662 55.5691 174.192 57.1105 175.166 58.3641C176.141 59.6177 177.506 60.5124 179.047 60.9074C180.587 61.3024 182.215 61.1753 183.675 60.546C185.135 59.9167 186.344 58.8211 187.111 57.4314C186.009 54.3479 184.677 51.6781 183.17 49.7842C180.418 52.8023 176.91 53.883 173.674 53.5751Z" fill="#FF7235"/>
<path d="M180.364 83.8373C180.364 85.6489 181.054 87.3929 182.293 88.7171C183.533 90.0413 185.229 90.8469 187.041 90.9714C187.471 90.504 187.846 89.9885 188.157 89.4351C189.747 86.5709 190.459 82.1906 190.466 77.3065C189.373 76.8183 188.176 76.6106 186.983 76.7023C185.79 76.794 184.639 77.1821 183.634 77.8314C182.63 78.4806 181.805 79.3703 181.233 80.4194C180.662 81.4684 180.363 82.6434 180.364 83.8373Z" fill="#FF7235"/>
<path d="M165.244 90.9902C163.391 90.9883 161.61 91.7048 160.277 92.9883L160.677 93.8824L163.078 99.2486C166.208 98.8693 169.318 98.3327 172.394 97.6407C172.267 95.8356 171.458 94.1456 170.131 92.9115C168.805 91.6774 167.058 90.9909 165.244 90.9902Z" fill="#FF7235"/>
<path fill-rule="evenodd" clip-rule="evenodd" d="M177.619 80.8607C177.675 81.0232 177.588 81.1999 177.425 81.2553C174.536 82.2375 170.95 83.3667 167.861 84.3396C166.468 84.7786 165.175 85.1857 164.093 85.5331C163.929 85.5857 163.753 85.4959 163.701 85.3324C163.648 85.1689 163.738 84.9937 163.902 84.941C164.99 84.5915 166.287 84.1831 167.684 83.7432C170.769 82.7714 174.341 81.6465 177.223 80.6666C177.386 80.6112 177.564 80.6981 177.619 80.8607Z" fill="#F5EBDC"/>
<path fill-rule="evenodd" clip-rule="evenodd" d="M172.854 65.5379C173.026 65.5222 173.178 65.6481 173.193 65.8192L174.673 81.8662C174.688 82.0372 174.562 82.1886 174.391 82.2044C174.219 82.2201 174.068 82.0942 174.052 81.9232L172.573 65.8761C172.557 65.7051 172.683 65.5537 172.854 65.5379Z" fill="#F5EBDC"/>
<path fill-rule="evenodd" clip-rule="evenodd" d="M144.913 97.9188C145.069 97.9908 145.137 98.1755 145.065 98.3315C144.117 100.382 143.033 103.601 142.521 105.178C142.468 105.341 142.292 105.431 142.128 105.378C141.965 105.325 141.875 105.149 141.928 104.986C142.439 103.412 143.533 100.16 144.499 98.0709C144.571 97.915 144.756 97.8469 144.913 97.9188Z" fill="#30242A"/>
<path fill-rule="evenodd" clip-rule="evenodd" d="M147.957 99.2204C148.114 99.2928 148.181 99.4778 148.109 99.6335C145.951 104.266 144.682 109.557 144.211 111.755C144.175 111.923 144.009 112.03 143.841 111.994C143.673 111.958 143.565 111.793 143.601 111.625C144.075 109.414 145.356 104.069 147.543 99.3714C147.616 99.2157 147.801 99.1481 147.957 99.2204Z" fill="#30242A"/>
<path fill-rule="evenodd" clip-rule="evenodd" d="M150.994 100.735C151.152 100.804 151.225 100.987 151.156 101.144C149.764 104.348 148.541 108.733 147.852 111.444C147.81 111.61 147.64 111.711 147.474 111.669C147.307 111.626 147.206 111.457 147.248 111.291C147.937 108.577 149.171 104.15 150.584 100.897C150.653 100.739 150.836 100.667 150.994 100.735Z" fill="#30242A"/>
<path fill-rule="evenodd" clip-rule="evenodd" d="M146.155 62.6085C146.325 62.6339 146.442 62.7922 146.417 62.9621L145.569 68.6066C145.543 68.7764 145.385 68.8935 145.214 68.868C145.044 68.8426 144.927 68.6842 144.952 68.5144L145.8 62.8699C145.826 62.7001 145.984 62.583 146.155 62.6085Z" fill="#F5EBDC"/>
<path d="M182.389 34.5467C177.626 30.2706 171.904 31.4617 171.904 31.4617C172.121 28.8587 172.556 22.132 166.903 18.0114C161.249 13.8908 154.072 16.0599 151.462 19.3129C150.399 20.6392 149.877 22.4352 149.573 24.3898C151.31 24.6821 153.855 24.0866 153.855 24.0866C157.334 27.991 161.025 28.8587 161.025 28.8587C163.417 26.2557 167.766 26.2557 168.419 29.9471C169.141 34.0289 164.069 35.1531 164.069 35.1531C164.069 35.1531 162.993 40.9702 164.77 46.8339C165.023 47.6632 165.401 48.4496 165.889 49.1663C169.272 54.1421 177.709 55.7748 183.163 49.7883C183.432 49.4568 183.683 49.11 183.912 48.7495C185.491 46.3161 188.517 40.0481 182.389 34.5467Z" fill="#30242A"/>
<path fill-rule="evenodd" clip-rule="evenodd" d="M159.828 41.0039C159.912 41.1538 159.858 41.3433 159.708 41.4272C158.771 41.9501 157.778 42.3661 156.747 42.6671C156.582 42.7154 156.409 42.6209 156.36 42.456C156.312 42.2912 156.407 42.1184 156.572 42.0702C157.557 41.7823 158.507 41.3845 159.403 40.8844C159.554 40.8005 159.743 40.854 159.828 41.0039Z" fill="#30242A"/>
<path fill-rule="evenodd" clip-rule="evenodd" d="M172.177 31.1065C172.349 31.1236 172.474 31.2759 172.457 31.4468C172.338 32.6343 172.179 34.1155 172.022 35.2869C171.999 35.4572 171.843 35.5768 171.672 35.5541C171.501 35.5314 171.381 35.375 171.404 35.2047C171.559 34.0437 171.718 32.5706 171.836 31.3852C171.853 31.2143 172.006 31.0895 172.177 31.1065Z" fill="black"/>
<path fill-rule="evenodd" clip-rule="evenodd" d="M165.646 30.4339C165.73 30.584 165.676 30.7734 165.525 30.8568L163.585 31.9328C163.434 32.0163 163.245 31.9622 163.161 31.8121C163.077 31.662 163.131 31.4726 163.282 31.3892L165.222 30.3131C165.373 30.2297 165.563 30.2838 165.646 30.4339Z" fill="#30242A"/>
<path fill-rule="evenodd" clip-rule="evenodd" d="M154.785 35.8036C154.937 35.8838 154.996 36.072 154.915 36.2239C154.584 36.8505 154.008 37.1036 153.492 37.1696C153.235 37.2025 152.987 37.1906 152.775 37.1544C152.57 37.1193 152.376 37.0573 152.239 36.9722C152.093 36.8812 152.049 36.6893 152.14 36.5437C152.231 36.398 152.424 36.3536 152.57 36.4446C152.612 36.4707 152.718 36.5136 152.881 36.5414C153.037 36.5681 153.223 36.577 153.413 36.5527C153.79 36.5044 154.153 36.3315 154.364 35.9334C154.444 35.7815 154.633 35.7234 154.785 35.8036Z" fill="#30242A"/>
<path d="M155.917 31.8717C156.275 31.8717 156.564 31.5827 156.564 31.2264C156.564 30.87 156.275 30.5811 155.917 30.5811C155.56 30.5811 155.271 30.87 155.271 31.2264C155.271 31.5827 155.56 31.8717 155.917 31.8717Z" fill="#30242A"/>
<path fill-rule="evenodd" clip-rule="evenodd" d="M152.395 32.4964C152.562 32.5352 152.667 32.7023 152.628 32.8696C152.579 33.0802 152.536 33.2929 152.513 33.4685C152.502 33.5566 152.497 33.6286 152.497 33.6828C152.497 33.7146 152.499 33.7323 152.5 33.7396C152.563 33.8609 152.664 33.9587 152.788 34.018C152.943 34.0925 153.009 34.2783 152.934 34.4331C152.859 34.5879 152.673 34.653 152.518 34.5786C152.261 34.4552 152.053 34.2481 151.93 33.9915L151.927 33.9852L151.924 33.9789C151.881 33.8798 151.874 33.7692 151.874 33.6857C151.873 33.5937 151.882 33.4919 151.895 33.3893C151.922 33.1836 151.97 32.9477 152.021 32.7291C152.059 32.5618 152.227 32.4576 152.395 32.4964Z" fill="#30242A"/>
<path fill-rule="evenodd" clip-rule="evenodd" d="M146.905 29.7806C146.548 31.3173 147.388 32.7655 148.701 33.069C150.013 33.3724 151.406 32.4408 151.764 30.9041C152.121 29.3674 151.28 27.9192 149.968 27.6157C148.655 27.3122 147.262 28.2439 146.905 29.7806ZM148.56 33.6749C146.853 33.2803 145.877 31.4498 146.297 29.6401C146.718 27.8304 148.402 26.6152 150.108 27.0098C151.815 27.4044 152.791 29.2349 152.371 31.0446C151.95 32.8543 150.266 34.0695 148.56 33.6749Z" fill="black"/>
<path fill-rule="evenodd" clip-rule="evenodd" d="M153.764 30.8689C153.407 32.4056 154.247 33.8539 155.56 34.1573C156.872 34.4608 158.266 33.5292 158.623 31.9925C158.98 30.4558 158.139 29.0076 156.827 28.7041C155.515 28.4006 154.121 29.3323 153.764 30.8689ZM155.419 34.7633C153.713 34.3687 152.736 32.5382 153.157 30.7285C153.577 28.9188 155.261 27.7036 156.968 28.0982C158.674 28.4928 159.651 30.3232 159.23 32.1329C158.81 33.9426 157.126 35.1579 155.419 34.7633Z" fill="black"/>
<path fill-rule="evenodd" clip-rule="evenodd" d="M151.921 30.6926C151.945 30.5224 152.103 30.4041 152.273 30.4285L153.364 30.5841C153.535 30.6084 153.653 30.7661 153.629 30.9362C153.605 31.1064 153.447 31.2247 153.276 31.2004L152.185 31.0447C152.015 31.0204 151.896 30.8628 151.921 30.6926Z" fill="black"/>
<path fill-rule="evenodd" clip-rule="evenodd" d="M121.129 28.3597C121.24 28.2283 121.437 28.2115 121.569 28.3221L121.368 28.56L121.167 28.7979C121.035 28.6873 121.019 28.4911 121.129 28.3597ZM124.865 31.8863L125.019 31.728L124.92 31.5308C124.862 31.4154 124.759 31.2833 124.647 31.154C124.529 31.0187 124.382 30.8647 124.219 30.7017C123.891 30.3753 123.487 30.0019 123.096 29.6506C122.704 29.2988 122.323 28.9668 122.039 28.7229C121.897 28.6009 121.78 28.5009 121.698 28.4313C121.657 28.3965 121.625 28.3692 121.603 28.3507L121.569 28.3223C121.569 28.3223 121.569 28.3221 121.368 28.56C121.167 28.7979 121.167 28.7979 121.167 28.7979L121.2 28.8255C121.221 28.8437 121.253 28.8706 121.294 28.905C121.375 28.9739 121.491 29.073 121.632 29.194C121.913 29.4361 122.292 29.765 122.679 30.1129C123.067 30.4613 123.462 30.8264 123.778 31.1415C123.936 31.2992 124.071 31.4416 124.175 31.5614C124.202 31.5917 124.225 31.6194 124.245 31.6446C124.232 31.6605 124.217 31.6774 124.202 31.6953C124.072 31.8493 123.892 32.0746 123.689 32.3636C123.284 32.9409 122.782 33.7761 122.4 34.8082C121.634 36.8799 121.354 39.7431 123.285 42.873C123.375 43.0193 123.567 43.0649 123.713 42.9749C123.86 42.8849 123.906 42.6933 123.816 42.547C122.005 39.6127 122.271 36.9558 122.985 35.0235C123.344 34.0536 123.817 33.2659 124.2 32.7207C124.391 32.4484 124.56 32.2376 124.679 32.0959C124.739 32.025 124.787 31.9715 124.819 31.9362C124.835 31.9186 124.847 31.9055 124.855 31.8972C124.859 31.893 124.861 31.89 124.863 31.8882L124.865 31.8863Z" fill="#30242A"/>
<path d="M137.239 12.4517C137.597 11.8677 137.413 11.1047 136.827 10.7474C136.242 10.3902 135.477 10.574 135.119 11.1579L111.509 49.6592C111.151 50.2432 111.335 51.0062 111.921 51.3634C112.506 51.7207 113.271 51.5369 113.629 50.9529L137.239 12.4517Z" fill="#30242A"/>
<path d="M139.384 2.44771L142.068 0.304996C142.287 0.129775 142.555 0.0257619 142.835 0.0069871C143.115 -0.0117877 143.394 0.0555799 143.634 0.200003C143.875 0.344426 144.065 0.558953 144.179 0.814631C144.293 1.07031 144.326 1.35483 144.274 1.62981L143.63 5.00249C143.579 5.26819 143.609 5.54294 143.714 5.79202C143.82 6.0411 143.997 6.25335 144.224 6.40194L147.095 8.28654C147.33 8.44008 147.511 8.66174 147.616 8.9216C147.72 9.18147 147.742 9.46703 147.679 9.73977C147.615 10.0125 147.47 10.2593 147.261 10.4468C147.053 10.6343 146.792 10.7536 146.513 10.7884L143.111 11.2223C142.842 11.2563 142.589 11.3691 142.384 11.5465C142.179 11.7239 142.031 11.9579 141.959 12.219L141.05 15.5248C140.976 15.7945 140.82 16.0349 140.605 16.2139C140.389 16.3928 140.124 16.5016 139.845 16.5256C139.565 16.5497 139.285 16.4878 139.042 16.3484C138.799 16.2089 138.604 15.9986 138.485 15.7456L137.021 12.6357C136.905 12.392 136.718 12.1882 136.486 12.0498C136.254 11.9115 135.985 11.8448 135.715 11.8582L132.286 12.0137C132.004 12.0314 131.723 11.9616 131.482 11.8139C131.241 11.6663 131.052 11.448 130.94 11.189C130.829 10.9299 130.8 10.6427 130.858 10.3668C130.916 10.0908 131.058 9.83941 131.265 9.64711L133.77 7.29915C133.968 7.11375 134.106 6.87404 134.167 6.61029C134.228 6.34655 134.21 6.0706 134.114 5.81728L132.902 2.60943C132.802 2.34716 132.786 2.06075 132.855 1.78887C132.923 1.517 133.074 1.27275 133.287 1.08913C133.499 0.905504 133.763 0.791346 134.043 0.762069C134.322 0.732793 134.604 0.789809 134.85 0.92542L137.863 2.57833C138.101 2.709 138.373 2.76633 138.643 2.74309C138.914 2.71984 139.172 2.61705 139.384 2.44771Z" fill="#3EC1F3"/>
<path d="M123.316 27.7042C122.225 26.7712 120.129 26.1664 119.108 26.7712C117.384 27.7928 117.808 29.777 117.808 29.777C117.808 29.777 115.002 29.3416 115.037 32.2089C115.037 32.2089 112.778 33.1947 113.766 35.4478C113.766 35.4478 111.812 35.9408 112.741 38.3416C113.497 40.2993 115.241 41.324 116.302 41.8542C117.237 42.3207 118.671 41.6474 118.173 39.8328C118.173 39.8328 119.264 40.1438 119.887 39.5218C120.748 38.6635 120.355 37.0339 120.355 37.0339C120.355 37.0339 121.446 37.3449 122.225 36.7229C123.176 35.9641 122.693 34.546 122.693 34.546C123.041 34.4991 123.37 34.3586 123.645 34.1395C123.919 33.9203 124.129 33.6309 124.251 33.302C124.875 31.7471 122.537 29.8811 122.537 29.8811L123.316 27.7042Z" fill="#A15842"/>
<path fill-rule="evenodd" clip-rule="evenodd" d="M113.454 35.2961C113.587 35.1869 113.783 35.2058 113.893 35.3384C115.253 36.9863 116.753 38.515 118.376 39.9077C118.506 40.0197 118.521 40.2161 118.409 40.3462C118.296 40.4764 118.099 40.4912 117.969 40.3791C116.32 38.9633 114.795 37.4092 113.411 35.7338C113.302 35.6013 113.321 35.4053 113.454 35.2961Z" fill="#30242A"/>
<path fill-rule="evenodd" clip-rule="evenodd" d="M114.858 31.9526C114.991 31.8439 115.188 31.8635 115.297 31.9964C116.888 33.9379 118.705 35.6845 120.708 37.1997C120.846 37.3034 120.873 37.4985 120.769 37.6354C120.665 37.7722 120.469 37.7991 120.332 37.6953C118.289 36.1505 116.437 34.3697 114.814 32.3902C114.705 32.2573 114.725 32.0613 114.858 31.9526Z" fill="#30242A"/>
<path fill-rule="evenodd" clip-rule="evenodd" d="M117.36 29.6602C117.497 29.5562 117.693 29.5827 117.797 29.7193C119.25 31.6237 120.998 33.2841 122.977 34.638C123.119 34.7351 123.155 34.9287 123.057 35.0703C122.96 35.212 122.766 35.248 122.624 35.1508C120.591 33.7595 118.794 32.0531 117.301 30.096C117.197 29.9594 117.223 29.7642 117.36 29.6602Z" fill="#30242A"/>
<path fill-rule="evenodd" clip-rule="evenodd" d="M121.129 28.3597C121.24 28.2283 121.437 28.2115 121.569 28.3221L121.368 28.56L121.167 28.7979C121.035 28.6873 121.019 28.4911 121.129 28.3597ZM121.368 28.56L121.167 28.7979L121.183 28.8116C121.194 28.8207 121.21 28.8342 121.231 28.8518C121.272 28.8869 121.333 28.9383 121.409 29.0029C121.56 29.1322 121.772 29.3144 122.015 29.5262C122.501 29.9507 123.106 30.4905 123.588 30.9597C123.711 31.0795 123.909 31.077 124.029 30.954C124.149 30.831 124.147 30.6341 124.023 30.5142C123.529 30.0333 122.914 29.4847 122.426 29.0582C122.181 28.8445 121.967 28.6607 121.814 28.5302C121.738 28.465 121.676 28.4131 121.634 28.3774C121.613 28.3596 121.597 28.3458 121.586 28.3365L121.569 28.3221C121.569 28.3221 121.569 28.3221 121.368 28.56Z" fill="#30242A"/>
<path d="M157.989 14.5991L157.166 15.5025L156.619 16.1028C156.271 17.3156 158.801 19.2484 162.319 20.4457C165.837 21.643 169.021 21.6539 169.489 20.4815L169.423 19.6729L169.325 18.4554C168.003 18.7664 165.714 18.516 163.26 17.6779C160.807 16.8398 158.841 15.6565 157.989 14.5991Z" fill="#FFBE21"/>
<path d="M164.211 14.9135C162.372 14.2915 160.804 13.4611 159.775 12.6401L157.989 14.5994C158.841 15.6567 160.812 16.8478 163.263 17.6828C165.715 18.5178 168.006 18.7713 169.328 18.4603L169.115 15.8169C167.797 15.8402 166.05 15.5386 164.211 14.9135Z" fill="#FF7235"/>
<path d="M161.686 10.543L159.775 12.639C160.804 13.46 162.372 14.2873 164.211 14.9124C166.05 15.5375 167.796 15.8453 169.114 15.8173L168.885 12.992C166.341 12.6854 163.888 11.8512 161.686 10.543Z" fill="#FFBE21"/>
<path d="M166.105 9.37378C165.272 9.093 164.461 8.75369 163.676 8.3584L161.686 10.5353C163.888 11.8435 166.341 12.6777 168.886 12.9844L168.647 10.0424C167.785 9.8789 166.936 9.65548 166.105 9.37378Z" fill="#FF7235"/>
<path d="M168.647 10.0511L168.115 3.48926L163.676 8.35935C164.461 8.75464 165.272 9.09395 166.105 9.37473C166.935 9.65906 167.785 9.88508 168.647 10.0511Z" fill="#FFBE21"/>
<path d="M168.489 4.78923C169.815 4.78923 170.89 3.71713 170.89 2.39462C170.89 1.07211 169.815 0 168.489 0C167.164 0 166.089 1.07211 166.089 2.39462C166.089 3.71713 167.164 4.78923 168.489 4.78923Z" fill="#FF7235"/>
</svg>
