<svg width="19" height="19" viewBox="0 0 19 19" fill="none" xmlns="http://www.w3.org/2000/svg">
<path d="M9.53809 18.1689C14.4424 18.1689 18.5029 14.0996 18.5029 9.2041C18.5029 4.2998 14.4336 0.239258 9.5293 0.239258C4.63379 0.239258 0.573242 4.2998 0.573242 9.2041C0.573242 14.0996 4.64258 18.1689 9.53809 18.1689ZM9.53809 12.2012C6.90137 12.2012 4.8623 13.1416 3.97461 14.1963C2.78809 12.8779 2.07617 11.1289 2.07617 9.2041C2.07617 5.05566 5.38086 1.7334 9.5293 1.7334C13.6777 1.7334 17 5.05566 17.0088 9.2041C17.0176 11.1289 16.2969 12.8779 15.1104 14.2051C14.2227 13.1504 12.1836 12.2012 9.53809 12.2012ZM9.53809 10.707C11.2256 10.7246 12.5527 9.2832 12.5527 7.39355C12.5527 5.61816 11.2256 4.1416 9.53809 4.1416C7.85059 4.1416 6.51465 5.61816 6.52344 7.39355C6.53223 9.2832 7.85059 10.6895 9.53809 10.707Z" fill="#A8B1BD"/>
</svg>
