
<svg width="19" height="19" viewBox="0 0 19 19" fill="none" xmlns="http://www.w3.org/2000/svg">
<path d="M9.53809 18.6191C14.4424 18.6191 18.5029 14.5498 18.5029 9.6543C18.5029 4.75 14.4336 0.689453 9.5293 0.689453C4.63379 0.689453 0.573242 4.75 0.573242 9.6543C0.573242 14.5498 4.64258 18.6191 9.53809 18.6191ZM9.53809 12.6514C6.90137 12.6514 4.8623 13.5918 3.97461 14.6465C2.78809 13.3281 2.07617 11.5791 2.07617 9.6543C2.07617 5.50586 5.38086 2.18359 9.5293 2.18359C13.6777 2.18359 17 5.50586 17.0088 9.6543C17.0176 11.5791 16.2969 13.3281 15.1104 14.6553C14.2227 13.6006 12.1836 12.6514 9.53809 12.6514ZM9.53809 11.1572C11.2256 11.1748 12.5527 9.7334 12.5527 7.84375C12.5527 6.06836 11.2256 4.5918 9.53809 4.5918C7.85059 4.5918 6.51465 6.06836 6.52344 7.84375C6.53223 9.7334 7.85059 11.1396 9.53809 11.1572Z" fill="#A8B1BD"/>
</svg>
