<svg width="19" height="13" viewBox="0 0 19 13" fill="none" xmlns="http://www.w3.org/2000/svg">
<path d="M3.16748 12.9741H15.7798C17.3179 12.9741 18.0796 12.2197 18.0796 10.7109V2.73486C18.0796 1.22607 17.3179 0.464355 15.7798 0.464355H3.16748C1.63672 0.464355 0.867676 1.22607 0.867676 2.73486V10.7109C0.867676 12.2197 1.63672 12.9741 3.16748 12.9741ZM2.04688 2.80078C2.04688 2.03906 2.44971 1.64355 3.18213 1.64355H15.7651C16.4829 1.64355 16.9004 2.03906 16.9004 2.80078V3.37939H2.04688V2.80078ZM3.18213 11.7949C2.44971 11.7949 2.04688 11.4067 2.04688 10.645V5.04199H16.9004V10.645C16.9004 11.4067 16.4829 11.7949 15.7651 11.7949H3.18213ZM4.15625 10.4106H5.95068C6.38281 10.4106 6.66846 10.1177 6.66846 9.70752V8.35254C6.66846 7.93506 6.38281 7.64941 5.95068 7.64941H4.15625C3.72412 7.64941 3.43848 7.93506 3.43848 8.35254V9.70752C3.43848 10.1177 3.72412 10.4106 4.15625 10.4106Z" fill="#A8B1BD"/>
</svg>
