<svg width="19" height="15" viewBox="0 0 19 15" fill="none" xmlns="http://www.w3.org/2000/svg">
<path d="M4.77148 1.0542L1.07275 4.82617C0.948242 4.95801 0.867676 5.14844 0.867676 5.30957C0.867676 5.69775 1.13135 5.96143 1.51221 5.96143C1.70264 5.96143 1.84912 5.89551 1.97363 5.771L3.49707 4.19629L4.67627 2.83398L4.60303 4.52588V13.9375C4.60303 14.3257 4.87402 14.5967 5.26221 14.5967C5.64307 14.5967 5.91406 14.3257 5.91406 13.9375V4.52588L5.84814 2.83398L7.02002 4.19629L8.55078 5.771C8.67529 5.89551 8.81445 5.96143 9.00488 5.96143C9.38574 5.96143 9.64941 5.69775 9.64941 5.30957C9.64941 5.14844 9.57617 4.95801 9.44434 4.82617L5.75293 1.0542C5.48193 0.768555 5.0498 0.753906 4.77148 1.0542ZM14.1099 14.3843L17.8013 10.5977C17.9331 10.4731 18.0063 10.2827 18.0063 10.1143C18.0063 9.72607 17.7427 9.46973 17.3618 9.46973C17.1714 9.46973 17.0322 9.52832 16.9077 9.65283L15.3843 11.2275L14.2051 12.5972L14.271 10.9053V1.49365C14.271 1.11279 14 0.834473 13.6191 0.834473C13.231 0.834473 12.96 1.11279 12.96 1.49365V10.9053L13.0332 12.5972L11.854 11.2275L10.3306 9.65283C10.2061 9.52832 10.0596 9.46973 9.87646 9.46973C9.49561 9.46973 9.22461 9.72607 9.22461 10.1143C9.22461 10.2827 9.30518 10.4731 9.43701 10.5977L13.1284 14.3843C13.3994 14.6699 13.8242 14.6772 14.1099 14.3843Z" fill="#A8B1BD"/>
</svg>
