<svg width="13" height="16" viewBox="0 0 13 16" fill="none" xmlns="http://www.w3.org/2000/svg">
<path d="M6.06787 15.9702C9.93506 15.9702 12.5132 13.3555 12.5132 9.41504C12.5132 2.85986 6.93213 0.12793 3.05762 0.12793C2.36914 0.12793 1.92969 0.369629 1.92969 0.838379C1.92969 1.02148 2.01025 1.21191 2.16406 1.3877C3.03564 2.42773 3.90723 3.66553 3.92188 5.1084C3.92188 5.2915 3.90723 5.46729 3.85596 5.65771C3.45312 4.80078 2.69873 4.22949 2.0249 4.22949C1.72461 4.22949 1.51953 4.44922 1.51953 4.77881C1.51953 4.96924 1.5708 5.41602 1.5708 5.73828C1.5708 7.37891 0.311035 8.33838 0.311035 10.9824C0.311035 13.978 2.60352 15.9702 6.06787 15.9702ZM6.14111 14.9448C3.27002 14.9448 1.34375 13.3481 1.34375 10.9824C1.34375 8.58008 2.64014 7.76709 2.64014 5.86279C2.64014 5.76758 2.64014 5.67969 2.62549 5.5918C3.07227 5.97266 3.39453 6.56592 3.59229 7.4082C3.62158 7.56201 3.70947 7.63525 3.81934 7.63525C4.4126 7.63525 4.8374 6.16309 4.8374 5.23291C4.8374 3.68018 4.21484 2.19336 3.18945 1.1167C8.19922 1.40967 11.4365 4.8374 11.4365 9.37842C11.4365 12.7036 9.3125 14.9448 6.14111 14.9448ZM6.23633 13.9121C7.97949 13.9121 8.8291 12.6304 8.8291 11.1802C8.8291 9.75195 7.99414 8.15527 6.39014 7.40088C6.32422 7.37891 6.28027 7.41553 6.2876 7.48145C6.41211 8.68262 6.229 9.7959 5.84082 10.3232C5.65771 9.89844 5.43799 9.53223 5.10107 9.23193C5.0498 9.18799 5.00586 9.20996 4.99121 9.27588C4.87402 10.1035 3.9585 10.5649 3.9585 11.854C3.9585 13.0845 4.8667 13.9121 6.23633 13.9121Z" fill="white"/>
</svg>
