<svg width="18" height="15" viewBox="0 0 18 15" fill="none" xmlns="http://www.w3.org/2000/svg">
<path d="M16.0283 10.5303C17.3203 9.24512 17.3271 7.52246 16.042 6.2373L10.9424 1.14453C9.65723 -0.140625 7.94824 -0.140625 6.64941 1.15137C5.35742 2.43652 5.35742 4.15918 6.64258 5.44434L11.7354 10.5439C13.0205 11.8291 14.7295 11.8223 16.0283 10.5303ZM7.49707 4.74023C6.64258 3.88574 6.62207 2.75781 7.43555 1.9375C8.24902 1.11719 9.38379 1.14453 10.2383 1.99902L12.3096 4.07715L9.5752 6.81152L7.49707 4.74023ZM15.2422 9.74414C14.4287 10.5645 13.2939 10.5371 12.4463 9.68262L10.3613 7.59766L13.0957 4.86328L15.1807 6.94824C16.0352 7.7959 16.0625 8.93066 15.2422 9.74414ZM4.30469 14.2217C6.3623 14.2217 8.03027 12.5469 8.03027 10.4824C8.03027 8.43848 6.3623 6.76367 4.30469 6.76367C2.24707 6.76367 0.572266 8.43848 0.572266 10.4824C0.572266 12.5469 2.24023 14.2217 4.30469 14.2217ZM4.30469 7.86426C5.5625 7.86426 6.62207 8.75293 6.875 9.93555H1.73438C1.9873 8.75293 3.04688 7.86426 4.30469 7.86426ZM4.30469 13.1211C3.04004 13.1211 1.9873 12.2324 1.73438 11.043H6.875C6.61523 12.2256 5.56934 13.1211 4.30469 13.1211Z" fill="white"/>
</svg>
