<svg width="14" height="13" viewBox="0 0 14 13" fill="none" xmlns="http://www.w3.org/2000/svg">
<path d="M4.58594 4.36035C5.74121 4.36035 6.70605 3.40186 6.70605 2.24658C6.70605 1.09131 5.74121 0.126465 4.58594 0.126465C3.43066 0.126465 2.46582 1.09131 2.46582 2.24658C2.46582 3.40186 3.43066 4.36035 4.58594 4.36035ZM9.23877 4.36035C10.394 4.36035 11.3589 3.40186 11.3589 2.24658C11.3589 1.09131 10.394 0.126465 9.23877 0.126465C8.0835 0.126465 7.11865 1.09131 7.11865 2.24658C7.11865 3.40186 8.0835 4.36035 9.23877 4.36035ZM4.58594 3.33838C3.98926 3.33838 3.48779 2.83691 3.48779 2.24658C3.48779 1.6499 3.98926 1.14844 4.58594 1.14844C5.18262 1.14844 5.68408 1.6499 5.68408 2.24658C5.68408 2.83691 5.18262 3.33838 4.58594 3.33838ZM9.23877 3.33838C8.64209 3.33838 8.14062 2.83691 8.14062 2.24658C8.14062 1.6499 8.64209 1.14844 9.23877 1.14844C9.83545 1.14844 10.3369 1.6499 10.3369 2.24658C10.3369 2.83691 9.83545 3.33838 9.23877 3.33838ZM2.25635 8.53711C3.41797 8.53711 4.38281 7.57227 4.38281 6.41699C4.38281 5.26172 3.41797 4.29688 2.25635 4.29688C1.10107 4.29688 0.13623 5.26172 0.13623 6.41699C0.13623 7.57227 1.10107 8.53711 2.25635 8.53711ZM11.5684 8.53711C12.7236 8.53711 13.6885 7.57227 13.6885 6.41699C13.6885 5.26172 12.7236 4.29688 11.5684 4.29688C10.4131 4.29688 9.44189 5.26172 9.44189 6.41699C9.44189 7.57227 10.4131 8.53711 11.5684 8.53711ZM2.25635 7.51514C1.65967 7.51514 1.1582 7.01367 1.1582 6.41699C1.1582 5.82031 1.65967 5.31885 2.25635 5.31885C2.85303 5.31885 3.36084 5.82031 3.36084 6.41699C3.36084 7.01367 2.85303 7.51514 2.25635 7.51514ZM11.5684 7.51514C10.9717 7.51514 10.4639 7.01367 10.4639 6.41699C10.4639 5.82031 10.9717 5.31885 11.5684 5.31885C12.165 5.31885 12.6665 5.82031 12.6665 6.41699C12.6665 7.01367 12.165 7.51514 11.5684 7.51514ZM4.58594 12.7075C5.74121 12.7075 6.70605 11.7427 6.70605 10.5874C6.70605 9.42578 5.74121 8.46729 4.58594 8.46729C3.43066 8.46729 2.46582 9.42578 2.46582 10.5874C2.46582 11.7427 3.43066 12.7075 4.58594 12.7075ZM9.23877 12.7075C10.394 12.7075 11.3589 11.7427 11.3589 10.5874C11.3589 9.42578 10.394 8.46729 9.23877 8.46729C8.0835 8.46729 7.11865 9.42578 7.11865 10.5874C7.11865 11.7427 8.0835 12.7075 9.23877 12.7075ZM4.58594 11.6855C3.98926 11.6855 3.48779 11.1841 3.48779 10.5874C3.48779 9.99072 3.98926 9.48926 4.58594 9.48926C5.18262 9.48926 5.68408 9.99072 5.68408 10.5874C5.68408 11.1841 5.18262 11.6855 4.58594 11.6855ZM9.23877 11.6855C8.64209 11.6855 8.14062 11.1841 8.14062 10.5874C8.14062 9.99072 8.64209 9.48926 9.23877 9.48926C9.83545 9.48926 10.3369 9.99072 10.3369 10.5874C10.3369 11.1841 9.83545 11.6855 9.23877 11.6855Z" fill="white"/>
</svg>
