<svg width="13" height="15" viewBox="0 0 13 15" fill="none" xmlns="http://www.w3.org/2000/svg">
<path d="M2.88965 14.3672H10.9355C12.1592 14.3672 12.877 13.6562 12.877 12.248V5.17285C12.877 3.76465 12.1523 3.05371 10.7305 3.05371H9.63672C9.60254 1.61816 8.35156 0.394531 6.80664 0.394531C5.26172 0.394531 4.01074 1.61816 3.97656 3.05371H2.88965C1.46094 3.05371 0.743164 3.75781 0.743164 5.17285V12.248C0.743164 13.6631 1.46094 14.3672 2.88965 14.3672ZM6.80664 1.43359C7.77051 1.43359 8.50195 2.1582 8.53613 3.05371H5.07715C5.11133 2.1582 5.84277 1.43359 6.80664 1.43359ZM2.90332 13.2666C2.21973 13.2666 1.84375 12.9043 1.84375 12.1934V5.22754C1.84375 4.5166 2.21973 4.1543 2.90332 4.1543H10.71C11.3867 4.1543 11.7764 4.5166 11.7764 5.22754V12.1934C11.7764 12.9043 11.3867 13.2666 10.915 13.2666H2.90332Z" fill="white"/>
</svg>
